<svg width="63" height="53" viewBox="0 0 63 53" fill="none" xmlns="http://www.w3.org/2000/svg">
<path fill-rule="evenodd" clip-rule="evenodd" d="M6.08749 0.669708C5.76418 0.894953 5.73345 1.04617 5.73345 2.41333V3.91015H3.21296C0.784367 3.91015 0.679891 3.92347 0.346236 4.27695L0 4.6439V26.4758V48.3077L0.390989 48.6967L0.781819 49.0859H13.2912H25.8005L25.8031 49.5218C25.807 50.1802 26.4376 51.1549 27.2087 51.6946L27.8974 52.1768L30.79 52.2299C32.6534 52.264 33.899 52.2184 34.2905 52.1017C35.2519 51.8149 36.1134 50.933 36.404 49.938L36.653 49.0859H49.0713H61.4898L61.8806 48.6967L62.2716 48.3077V26.4536V4.59952L61.9031 4.25476C61.5568 3.93124 61.382 3.91015 59.0364 3.91015H56.5382V2.41333C56.5382 0.416249 56.5463 0.421956 53.6757 0.425918C45.9811 0.436697 41.2499 1.12067 32.8286 3.43969L31.1767 3.89446L28.2896 3.12727C21.5299 1.33086 19.0116 0.897014 13.5373 0.585856C9.22862 0.340956 6.51511 0.371549 6.08749 0.669708ZM7.68377 22.2333L7.72423 42.0321L8.75943 42.0679C17.7957 42.3815 23.8653 43.4059 28.8883 45.4658C29.4916 45.7132 30.0111 45.9156 30.0429 45.9156C30.0746 45.9156 30.1006 36.8654 30.1006 25.8042V5.69277L29.1848 5.45405C20.1569 3.10048 17.8022 2.71831 11.1875 2.53348L7.64332 2.43457L7.68377 22.2333ZM48.575 2.59514C44.325 2.85209 40.535 3.50532 35.3164 4.87993L32.171 5.70862V25.8121C32.171 36.8691 32.2029 45.9156 32.2417 45.9156C32.2806 45.9156 32.9315 45.6672 33.6881 45.3637C38.4632 43.4476 43.9768 42.4767 51.9992 42.1393L54.5474 42.0321L54.5878 22.2578L54.6283 2.48355L52.0396 2.51288C50.6158 2.52905 49.0568 2.56598 48.575 2.59514ZM2.07041 26.498V47.0252L14.6123 47.0165L27.1542 47.0079L26.3716 46.692C25.2089 46.2225 21.5453 45.349 19.1911 44.9798C16.2338 44.516 13.8033 44.3144 9.74192 44.1963C6.47242 44.1012 6.16728 44.0679 5.95944 43.7851C5.76737 43.5234 5.73345 40.6686 5.73345 24.7241V5.9708H3.90193H2.07041V26.498ZM56.5382 24.7241C56.5382 40.6686 56.5042 43.5234 56.3122 43.7851C56.1043 44.0679 55.799 44.1012 52.5297 44.1966C46.8905 44.3613 42.7206 44.8606 38.8051 45.8403C37.3268 46.2101 35.3725 46.8223 35.2102 46.9662C35.1737 46.9987 40.7819 47.0252 47.6725 47.0252H60.2012V26.498V5.9708H58.3697H56.5382V24.7241ZM35.1196 12.8134C34.4469 13.34 34.2414 14.02 34.2414 15.7192C34.2414 17.5028 34.4727 18.1898 35.2273 18.6476C35.6753 18.9196 36.0293 18.9676 37.5859 18.9676C40.5549 18.9676 41.0048 18.4778 40.9051 15.3553L40.8476 13.5521L40.2544 13.0109L39.661 12.4698H37.6098C35.7466 12.4698 35.5182 12.5013 35.1196 12.8134ZM43.0834 13.3612C42.9164 13.5273 42.8419 13.8214 42.873 14.1898C42.9526 15.1323 43.1673 15.1736 47.7225 15.1266C51.4039 15.0885 51.7546 15.0608 52.0624 14.7832C52.4596 14.4252 52.4913 13.9419 52.1494 13.4562C51.9036 13.107 51.8638 13.1038 47.6219 13.1038C43.8843 13.1038 43.3093 13.1365 43.0834 13.3612ZM13.9907 15.9759C10.7063 17.8674 9.21508 18.8118 9.09341 19.0775C8.83094 19.6508 8.85849 29.54 9.12399 30.0645C9.25984 30.3329 10.5822 31.1909 13.2226 32.7237C17.9175 35.4491 18.5237 35.7709 18.9642 35.7709C19.3262 35.7709 28.0667 30.8208 28.5448 30.3449C28.8034 30.0875 28.8265 29.6128 28.8265 24.5412C28.8265 19.4818 28.8031 18.9968 28.5478 18.7677C28.1337 18.3963 19.4617 13.4341 19.0593 13.3384C18.8103 13.2791 17.39 14.0183 13.9907 15.9759ZM36.3118 15.7192V16.9081H37.5859H38.86V15.7192V14.5304H37.5859H36.3118V15.7192ZM15.6085 17.3922C13.8131 18.4336 12.2903 19.2857 12.2242 19.2857C11.9217 19.2857 12.1549 19.5682 12.652 19.8041L13.2 20.0642L16.1159 18.3924C19.9801 16.1767 19.9078 16.2203 19.9078 16.1068C19.9078 16.0269 19.5047 15.7857 18.9522 15.5347C18.9084 15.5149 17.4037 16.3508 15.6085 17.3922ZM43.0853 16.5858C42.6916 17.0189 42.7253 17.699 43.1579 18.0478C43.481 18.3082 43.8951 18.3347 47.6371 18.3347C51.548 18.3347 51.7767 18.3184 52.0788 18.0177C52.254 17.8433 52.3973 17.5223 52.3973 17.3044C52.3973 17.0864 52.254 16.7654 52.0788 16.5911C51.7764 16.29 51.548 16.274 47.5645 16.274C43.5946 16.274 43.3535 16.2908 43.0853 16.5858ZM18.6603 19.2727C16.8793 20.301 15.4101 21.205 15.3954 21.2819C15.3132 21.7121 16.1756 21.347 18.7293 19.8705C20.2972 18.9638 21.8234 18.0975 22.1209 17.9454C22.535 17.7334 22.6095 17.6358 22.4394 17.5285C22.3171 17.4515 22.1454 17.3919 22.0578 17.3958C21.9703 17.3999 20.4413 18.2445 18.6603 19.2727ZM21.3437 20.709C19.5495 21.7485 18.0616 22.6581 18.0376 22.7302C18.0134 22.8023 18.1954 22.98 18.4419 23.1249L18.8903 23.3885L22.2658 21.4667C24.1222 20.4097 25.6412 19.502 25.6412 19.4495C25.6412 19.3607 24.7833 18.805 24.6611 18.8145C24.6309 18.8169 23.138 19.6693 21.3437 20.709ZM10.9891 25.2145V29.0825L14.3134 31.0002C16.1417 32.0548 17.6826 32.9177 17.7375 32.9177C17.7925 32.9177 17.8374 31.1742 17.8374 29.0432C17.8374 25.219 17.8328 25.1654 17.4834 24.9219C16.8189 24.4586 16.7226 24.5841 16.7226 25.9129C16.7226 27.3342 16.5238 27.7404 15.8294 27.7384C15.1748 27.7363 12.4339 26.1525 12.2495 25.6695C12.1694 25.4599 12.1039 24.5168 12.1039 23.5735C12.1039 21.9254 12.0887 21.8484 11.7114 21.6024C11.4956 21.4616 11.2447 21.3464 11.1539 21.3464C11.0448 21.3464 10.9891 22.6538 10.9891 25.2145ZM23.2125 23.269L19.9078 25.177V29.0473C19.9078 31.176 19.9616 32.9177 20.0272 32.9177C20.0929 32.9177 21.6159 32.0757 23.4116 31.0465L26.6765 29.1751L26.719 25.2608C26.7425 23.1079 26.7067 21.3497 26.6393 21.3537C26.5721 21.3576 25.03 22.2196 23.2125 23.269ZM35.1196 21.69C34.4469 22.2166 34.2414 22.8966 34.2414 24.5959C34.2414 26.3794 34.4727 27.0664 35.2273 27.5242C35.6753 27.7962 36.0293 27.8442 37.5859 27.8442C40.5549 27.8442 41.0048 27.3544 40.9051 24.2319L40.8476 22.4287L40.2544 21.8875L39.661 21.3464H37.6098C35.7466 21.3464 35.5182 21.3779 35.1196 21.69ZM43.0834 22.2379C42.9164 22.404 42.8419 22.698 42.873 23.0664C42.9526 24.0089 43.1673 24.0503 47.7225 24.0032C51.4039 23.9652 51.7546 23.9374 52.0624 23.6599C52.4596 23.3018 52.4913 22.8185 52.1494 22.3328C51.9036 21.9836 51.8638 21.9804 47.6219 21.9804C43.8843 21.9804 43.3093 22.0131 43.0834 22.2379ZM14.1744 23.8499C14.1744 24.3679 14.2589 24.7062 14.422 24.8409C14.6419 25.0226 14.6642 24.9421 14.6211 24.1199C14.5585 22.9269 14.1744 22.6948 14.1744 23.8499ZM36.3118 24.5959V25.7847H37.5859H38.86V24.5959V23.407H37.5859H36.3118V24.5959ZM43.0853 25.4625C42.6916 25.8955 42.7253 26.5757 43.1579 26.9244C43.481 27.1848 43.8951 27.2113 47.6371 27.2113C51.548 27.2113 51.7767 27.195 52.0788 26.8943C52.254 26.7199 52.3973 26.3989 52.3973 26.181C52.3973 25.963 52.254 25.642 52.0788 25.4677C51.7764 25.1667 51.548 25.1507 47.5645 25.1507C43.5946 25.1507 43.3535 25.1675 43.0853 25.4625ZM35.1196 30.5667C34.4469 31.0932 34.2414 31.7733 34.2414 33.4725C34.2414 35.2561 34.4727 35.9431 35.2273 36.4008C35.6753 36.6728 36.0293 36.7209 37.5859 36.7209C39.6911 36.7209 40.3007 36.4888 40.7011 35.5347C41.0034 34.8146 41.0098 32.1454 40.7108 31.4334C40.2693 30.3815 39.86 30.223 37.5859 30.223C35.7472 30.223 35.5176 30.255 35.1196 30.5667ZM43.0918 31.1061C42.7624 31.434 42.7702 32.3444 43.1049 32.621C43.3133 32.7931 44.2391 32.8385 47.5473 32.8385C51.4336 32.8385 51.7501 32.8172 52.0619 32.5365C52.4596 32.1784 52.4915 31.6953 52.1494 31.2094C51.9036 30.8602 51.8638 30.8571 47.6219 30.8571C43.9435 30.8571 43.307 30.8921 43.0918 31.1061ZM36.3118 33.4725V34.6613H37.5859H38.86V33.4725V32.2837H37.5859H36.3118V33.4725ZM43.1579 34.3142C42.9384 34.4911 42.8018 34.7764 42.8018 35.0576C42.8018 35.3388 42.9384 35.6241 43.1579 35.801C43.481 36.0615 43.8951 36.0879 47.6371 36.0879C51.548 36.0879 51.7767 36.0716 52.0788 35.7709C52.254 35.5966 52.3973 35.2756 52.3973 35.0576C52.3973 34.8397 52.254 34.5187 52.0788 34.3443C51.7767 34.0436 51.548 34.0273 47.6371 34.0273C43.8951 34.0273 43.481 34.0538 43.1579 34.3142ZM27.4481 47.3151C27.6015 47.4836 27.7117 47.8717 27.7117 48.2426C27.7117 49.0713 27.9886 49.8451 28.3549 50.0403C28.5151 50.1255 29.8283 50.1954 31.2731 50.1954H33.8998L34.2298 49.7778C34.4768 49.4653 34.5599 49.1307 34.5599 48.4499C34.5599 47.8276 34.6367 47.4762 34.8027 47.3391C35.3722 46.8686 34.7821 47.0536 33.0326 47.8939L31.1632 48.7917L29.2872 47.9084C28.2555 47.4228 27.3603 47.0252 27.2979 47.0252C27.2356 47.0252 27.3032 47.1557 27.4481 47.3151Z" fill="white"/>
</svg>
