<svg width="47" height="53" viewBox="0 0 47 53" fill="none" xmlns="http://www.w3.org/2000/svg">
<path fill-rule="evenodd" clip-rule="evenodd" d="M21.5182 0.508346C20.3896 0.714499 18.6909 1.26109 17.8392 1.69216C14.4492 3.40838 11.8225 6.69569 11.0384 10.2035C10.8783 10.9195 10.7898 11.0603 10.4555 11.132C7.74229 11.714 5.48642 12.9149 3.70706 14.7247C-0.117505 18.6146 -1.07083 24.3104 1.25913 29.3497C2.18272 31.3473 4.58081 33.924 6.38578 34.8583C6.93958 35.1449 7.39109 35.4137 7.38926 35.4557C7.38743 35.4977 6.82175 35.7677 6.13229 36.056C5.44268 36.3441 4.46695 36.8176 3.96391 37.1081C2.89505 37.7255 1.10029 38.9727 1.17422 39.0467C1.20227 39.0747 2.1158 38.9527 3.20433 38.7755C4.82928 38.5109 5.87894 38.4513 9.07045 38.4424C12.7275 38.4322 14.5216 38.5771 16.6159 39.0522C16.7836 39.0902 16.2246 38.785 15.3737 38.374C13.5915 37.5131 11.9268 36.4723 10.7992 35.5138C10.3666 35.1461 9.93247 34.8453 9.8343 34.8453C9.73628 34.8453 9.19834 34.6637 8.63922 34.4419C2.54841 32.0254 -0.323597 24.9596 2.36884 19.0153C4.57609 14.1424 9.86006 11.4627 15.1155 12.5513C15.967 12.7276 16.6992 12.8719 16.7425 12.8719C16.7856 12.8719 16.9028 12.6235 17.003 12.3197C17.1513 11.87 17.1464 11.7433 16.9767 11.6374C16.6185 11.4139 14.8398 11.0586 13.531 10.9494L12.2766 10.8447L12.3714 10.4469C12.8357 8.49614 13.9233 6.62031 15.4771 5.08965C17.1932 3.39907 18.9488 2.44918 21.2547 1.96378C26.7929 0.797509 32.4942 4.12007 34.3826 9.6145C34.5458 10.0895 34.6794 10.5616 34.6794 10.6634C34.6794 10.7853 34.2492 10.8845 33.4218 10.9532C32.3692 11.0408 29.8015 11.5884 29.8015 11.7255C29.8015 11.7481 29.9083 12.0224 30.039 12.3352C30.2498 12.8405 30.3223 12.8934 30.6868 12.8089C33.1791 12.2309 34.4135 12.1565 36.2071 12.477C38.4579 12.8791 40.6799 14.0331 42.2879 15.6355C47.5579 20.8872 46.4598 29.8079 40.0767 33.5991C39.0506 34.2085 37.5165 34.8453 37.0744 34.8453C36.9622 34.8453 36.6689 35.0588 36.4227 35.3196C35.7136 36.0709 33.8878 37.2415 31.8807 38.2317C30.8629 38.7337 30.2091 39.1054 30.4277 39.0575C34.3362 38.2015 42.0904 38.2013 45.5784 39.0572C46.0779 39.1797 44.9656 38.2744 43.5967 37.4444C42.4302 36.7373 40.7821 35.9237 40.0527 35.6951C39.7231 35.592 39.5682 35.3031 39.8426 35.3031C40.1723 35.3031 42.3916 33.6922 43.2614 32.8215C45.5872 30.4932 46.8027 27.7124 46.982 24.3094C47.2953 18.3616 43.494 13.1214 37.6332 11.4212C36.8912 11.2059 36.2442 10.9808 36.1956 10.9208C36.1468 10.8609 36.0179 10.4342 35.909 9.97263C35.4409 7.98724 33.9222 5.39529 32.3732 3.93788C30.8577 2.5122 28.6535 1.27894 26.6766 0.750816C25.5902 0.460584 22.5598 0.318215 21.5182 0.508346ZM20.8434 15.7062C16.992 16.5508 13.6451 19.1937 11.9653 22.7171C11.257 24.2027 10.7498 26.1568 10.7483 27.4064L10.7472 28.2838H11.3477H11.9479L12.0438 27.559C12.0964 27.1603 12.2117 26.4565 12.2998 25.9949C13.0523 22.055 16.0086 18.7228 19.9695 17.3498C21.0794 16.9651 21.3876 16.9266 23.3992 16.9214C25.3004 16.9164 25.7694 16.9657 26.7528 17.273C31.2453 18.6773 34.2906 22.304 34.8772 26.9486L35.0458 28.2838H35.7188H36.3916L36.2868 27.2538C35.6956 21.4525 31.6342 16.8439 26.1113 15.7077C24.694 15.4161 22.1693 15.4153 20.8434 15.7062ZM23.3524 27.4827C23.3169 27.5456 23.1086 28.1465 22.8895 28.8179C22.3257 30.5457 21.9222 32.388 21.7194 34.1587C21.4167 36.8037 21.4501 36.7735 19.7716 35.9296C19.1259 35.6051 17.6372 34.9798 16.4635 34.5403C13.2442 33.3346 12.3752 32.8477 11.0173 31.4895C9.67318 30.1451 9.56297 30.1799 9.83186 31.8646C10.1802 34.0476 11.8662 35.5564 16.3176 37.6686C18.1282 38.5279 18.5271 38.787 19.4282 39.6891C20.051 40.3124 20.6525 41.1018 20.9414 41.6746C21.7891 43.3556 21.8749 43.9652 21.8749 48.3056V52.2409H23.4755H25.076L25.0786 48.5406C25.0806 45.9204 25.1451 44.5391 25.2996 43.8091C25.6083 42.3508 26.4813 40.78 27.6125 39.6476C28.4279 38.8314 28.9056 38.5283 30.9534 37.5284C35.7369 35.1925 37.0825 33.866 37.2348 31.3357L37.3037 30.1912L36.3345 31.2073C35.8014 31.7663 34.9411 32.4946 34.4227 32.8259C33.4553 33.4442 32.9706 33.658 30.335 34.6294C29.4966 34.9384 28.1668 35.4964 27.3798 35.8694C25.6194 36.7034 25.5853 36.6833 25.3675 34.6827C25.151 32.6936 24.7108 30.5889 24.1463 28.8431C23.7082 27.4885 23.5259 27.1761 23.3524 27.4827Z" fill="white"/>
</svg>
