<svg width="37" height="53" viewBox="0 0 37 53" fill="none" xmlns="http://www.w3.org/2000/svg">
<path fill-rule="evenodd" clip-rule="evenodd" d="M16.9209 0.519733C14.9375 1.0524 13.3004 2.57191 12.7748 4.36821L12.5822 5.02611H10.666C8.86282 5.02611 8.73571 5.04639 8.50721 5.37023C8.37369 5.55939 8.26435 5.83323 8.26435 5.97874C8.26435 6.21884 7.94227 6.24779 4.76602 6.29252C1.5004 6.33865 1.23821 6.36358 0.82769 6.66636C0.585619 6.84485 0.300967 7.15832 0.195061 7.36296C0.0448588 7.65306 0.00181012 12.4927 9.44112e-05 29.2987C-0.00193325 48.1299 0.0272344 50.9188 0.23078 51.3095C0.750484 52.3067 -0.535831 52.24 18.1687 52.24C36.8732 52.24 35.5869 52.3067 36.1066 51.3095C36.3101 50.9188 36.3393 48.1299 36.3373 29.2987C36.3355 12.4927 36.2925 7.65306 36.1423 7.36296C36.0364 7.15832 35.7517 6.84485 35.5097 6.66636C35.0991 6.36358 34.8369 6.33865 31.5713 6.29252C28.3701 6.24748 28.073 6.22039 28.073 5.97379C28.073 5.82565 27.9736 5.5693 27.8521 5.40397C27.6604 5.14329 27.3788 5.09329 25.7211 5.02611L23.8109 4.94871L23.6413 4.40691C23.1665 2.88956 21.9896 1.57702 20.495 0.898064C19.5799 0.482117 17.773 0.290939 16.9209 0.519733ZM17.3099 2.53909C15.7565 3.00814 14.7416 4.2131 14.5504 5.81528C14.4177 6.92782 14.1913 7.0385 12.0509 7.0385H10.292V8.8187V10.5989H18.1687H26.0453V8.8187V7.0385H24.2811C22.7211 7.0385 22.4773 7.00197 22.1755 6.72287C21.9411 6.50615 21.8341 6.22457 21.8341 5.82441C21.8341 5.05149 21.15 3.72115 20.4992 3.22857C19.6033 2.5504 18.2451 2.25674 17.3099 2.53909ZM2.02541 29.3297V50.2276H18.1687H34.3119V29.3297V8.4317H31.1925H28.073V9.5153V10.5989H29.7773C32.4339 10.5989 32.1283 8.16034 32.1283 29.3575V47.3005L31.7454 47.6804L31.3626 48.0604H18.1091H4.85555L4.53237 47.6525C4.20951 47.2452 4.20904 47.2194 4.20904 29.3297C4.20904 8.16483 3.90349 10.5989 6.56003 10.5989H8.26435V9.5153V8.4317H5.14488H2.02541V29.3297ZM6.39267 29.3297V46.048H18.1687H29.9447V29.3297V12.6113H18.1687H6.39267V29.3297ZM8.67534 17.731L8.26435 18.0517V22.1962C8.26435 26.0145 8.28681 26.3606 8.54963 26.5967C8.79872 26.8204 9.31936 26.8529 12.6588 26.8529C16.1652 26.8529 16.504 26.8293 16.7407 26.5697C16.9674 26.3213 16.9986 25.7874 16.9965 22.1966C16.9951 19.9473 16.9426 18.0301 16.8796 17.9364C16.5718 17.479 16.0102 17.4101 12.585 17.4101C9.28161 17.4101 9.06341 17.428 8.67534 17.731ZM21.6112 17.8081C21.4764 17.942 21.3672 18.2379 21.3685 18.466C21.3741 19.4325 21.8063 19.5777 24.6703 19.575C27.2769 19.5725 27.7355 19.4613 27.9793 18.7732C28.0889 18.4641 28.0597 18.2644 27.8613 17.9638L27.5979 17.5649H24.7271C22.3252 17.5649 21.8163 17.6047 21.6112 17.8081ZM10.396 19.5257C10.3388 19.5824 10.292 20.8014 10.292 22.2347V24.8405H12.6316H14.9712V22.1315V19.4225H12.7356C11.506 19.4225 10.4531 19.4689 10.396 19.5257ZM19.5724 21.3103C19.1487 21.5487 19.0317 21.748 19.0289 22.2366C19.0239 23.1141 19.1418 23.1377 23.5367 23.1377C27.2331 23.1377 27.5775 23.1149 27.8149 22.8545C28.204 22.4279 28.1377 21.8175 27.662 21.4462C27.2722 21.1418 27.0617 21.1256 23.5677 21.1299C21.1175 21.1332 19.7799 21.1934 19.5724 21.3103ZM19.6504 24.9479C19.0136 25.1737 18.8133 26.149 19.3118 26.5967C19.5615 26.821 20.0925 26.8529 23.5769 26.8529C27.2345 26.8529 27.5776 26.83 27.8149 26.5697C28.204 26.1431 28.1377 25.5327 27.662 25.1614C27.2714 24.8564 27.0679 24.8411 23.5677 24.8527C21.5419 24.8594 19.7791 24.9022 19.6504 24.9479ZM9.04422 31.7574C8.26186 32.0566 8.26435 32.0413 8.26435 36.4631V40.6076L8.67534 40.9283C9.06341 41.2313 9.28161 41.2492 12.585 41.2492C16.0102 41.2492 16.5718 41.1803 16.8796 40.7229C16.9426 40.6293 16.9951 38.7 16.9965 36.4357C16.9989 32.4469 16.9887 32.3097 16.6709 32.0239C16.3711 31.7543 16.0404 31.7264 12.8105 31.6984C10.8677 31.6817 9.1729 31.7082 9.04422 31.7574ZM21.6243 32.0896C21.2457 32.5046 21.2922 33.2854 21.7129 33.5778C21.9928 33.7726 22.5582 33.8188 24.6553 33.8188C27.0451 33.8188 27.2836 33.7935 27.662 33.4979C28.156 33.1125 28.1964 32.5481 27.7611 32.1161C27.4723 31.8295 27.2412 31.8065 24.6658 31.8065C22.1674 31.8065 21.856 31.8354 21.6243 32.0896ZM10.292 36.4504V39.082H12.6316H14.9712V36.4504V33.8188H12.6316H10.292V36.4504ZM19.447 35.6802C18.9743 36.0492 18.8904 36.6707 19.2477 37.1562C19.4547 37.4374 19.7175 37.4596 23.3506 37.5028C27.1055 37.5474 27.2459 37.5381 27.6526 37.2206C28.1694 36.8172 28.2106 36.1577 27.745 35.7391C27.4447 35.4692 27.0977 35.4404 23.6423 35.3981C19.9958 35.3534 19.8533 35.363 19.447 35.6802ZM19.8064 39.1879C19.0598 39.4731 18.7983 40.2608 19.2477 40.8714C19.4547 41.1526 19.7175 41.1748 23.3506 41.218C27.1055 41.2625 27.2459 41.2533 27.6526 40.9358C28.1694 40.5324 28.2106 39.8729 27.745 39.4543C27.4441 39.1837 27.112 39.157 23.7287 39.1289C21.7001 39.1122 19.9351 39.1387 19.8064 39.1879Z" fill="white"/>
</svg>
