<svg width="155" height="154" viewBox="0 0 155 154" fill="none" xmlns="http://www.w3.org/2000/svg">
<g clip-path="url(#clip0_2903_845)">
<path d="M132.573 45.6784C132.068 46.082 131.686 46.4282 131.272 46.7051C130.942 46.9261 130.943 47.1323 131.19 47.4077C131.331 47.5654 131.489 47.6994 131.628 47.86C131.944 48.2282 131.918 48.5331 131.49 48.6407C130.627 48.8587 129.751 49.0163 128.873 49.1356C127.497 49.3227 126.116 49.439 124.74 49.6291C124.48 49.6644 124.239 49.9001 123.989 50.043C124.185 50.2728 124.363 50.5276 124.58 50.725C124.81 50.9327 125.079 51.0755 125.325 51.2582C126.36 52.0315 126.629 53.0685 126.051 54.3471C125.339 55.9203 124.353 57.1458 122.792 57.4905C121.796 57.71 120.791 57.8735 119.797 58.1018C118.43 58.4156 117.214 59.183 116.054 60.0432C115.2 60.6752 114.87 61.7814 114.745 62.8847C114.481 65.2135 114.316 67.5571 114.125 69.8977C114.108 70.1128 114.209 70.3396 114.246 70.562C114.33 71.0658 114.459 71.5696 114.475 72.0778C114.499 72.8702 114.157 73.349 113.532 73.6259C113.157 73.7923 112.774 73.9662 112.438 74.218C111.663 74.8014 111.649 75.5084 112.361 76.1742C112.422 76.2316 112.475 76.3009 112.608 76.4511C112.385 76.5955 112.202 76.7163 112.019 76.8326C111.197 77.3497 110.35 77.8151 109.559 78.3926C108.802 78.9464 108.702 79.4178 108.921 80.4459C109.019 80.9085 109.123 81.3725 109.19 81.8423C109.341 82.8897 109.022 83.4671 108.151 83.7632C107.192 84.0902 106.232 84.4187 105.268 84.7265C104.83 84.8664 104.569 85.139 104.42 85.681C104.095 86.8624 103.693 88.0143 103.349 89.1883C103.29 89.3901 103.312 89.6744 103.388 89.8717C103.612 90.458 103.581 90.8263 103.176 91.2416C103.031 91.3904 102.866 91.5215 102.695 91.6202C101.727 92.1711 101.045 93.0652 100.708 94.2407C100.486 95.014 100.057 95.4854 99.5443 95.914C98.4516 96.8288 97.3565 97.7376 96.2514 98.6303C95.4514 99.2755 94.8474 100.094 94.8189 101.277C94.7817 102.845 94.0995 103.946 93.1383 104.857C92.7948 105.182 92.6893 105.406 92.894 105.922C93.2586 106.844 92.9672 107.563 92.1114 107.784C90.8872 108.099 89.6482 108.405 88.403 108.523C86.9605 108.66 85.7029 109.214 84.6152 110.313C84.2989 110.632 83.9851 110.724 83.6478 110.495C83.076 110.109 82.5328 109.665 81.9685 109.262C81.7973 109.14 81.6001 109.011 81.4091 108.996C80.2991 108.91 79.1878 108.844 78.0765 108.809C77.9128 108.803 77.6474 108.94 77.5953 109.09C76.9689 110.887 75.8912 112.226 74.605 113.363C74.1523 113.763 73.7108 114.185 73.2382 114.548C71.6197 115.791 71.1112 120.368 72.9852 121.994C73.9849 122.86 75.0552 123.364 76.3215 123.088C77.4464 122.844 78.1137 123.711 77.7987 125.015C77.4973 126.264 77.1463 127.495 76.8338 128.742C76.5634 129.818 76.6353 130.811 77.3485 131.666C77.6176 131.988 77.7925 132.418 78.0368 132.772C78.4374 133.351 78.8343 133.454 79.411 133.159C79.6913 133.015 79.958 132.828 80.2445 132.704C80.9056 132.417 81.3124 132.629 81.419 133.44C81.5245 134.245 81.517 135.077 81.5034 135.896C81.4959 136.344 81.5629 136.691 81.8246 137.036C82.7349 138.232 83.4332 139.552 83.6056 141.212C83.7247 142.349 84.2915 143.254 84.9215 144.104C84.8062 144.264 84.7256 144.411 84.6177 144.519C84.2047 144.924 84.1464 145.404 84.2729 146.007C84.3473 146.362 84.4862 146.449 84.7467 146.522C84.9637 146.583 85.3097 146.742 85.3259 146.896C85.3507 147.135 85.1944 147.487 85.022 147.652C84.32 148.324 83.6056 148.984 82.8515 149.569C81.9486 150.268 81.1995 149.804 81.0829 148.534C81.0184 147.833 80.9564 147.783 80.3611 147.86C79.6889 147.947 79.0154 148.022 78.3419 148.091C77.3621 148.193 77.0756 148.44 76.7965 149.521C76.6998 149.897 76.5051 150.096 76.1963 150.027C75.4236 149.853 74.6124 149.767 73.8993 149.412C72.8066 148.867 71.7238 148.831 70.5915 149.019C69.8411 149.144 69.087 149.234 68.333 149.306C68.0837 149.33 67.8257 149.258 67.5739 149.212C67.1783 149.141 66.7851 149.006 66.3882 148.99C65.7445 148.963 65.4766 149.302 65.4642 150.063C65.458 150.466 65.4766 150.868 65.4717 151.268C65.4655 151.737 65.2546 152.036 64.8689 152.098C64.4398 152.167 63.9933 152.123 63.5741 152.235C63.068 152.369 62.5843 152.616 62.0907 152.814C61.7161 152.962 61.3478 153.161 60.9633 153.248C60.3022 153.395 59.63 153.547 58.9615 153.556C58.2285 153.566 57.493 153.419 56.76 153.336C56.6 153.319 56.4413 153.279 56.2813 153.26C55.2419 153.135 54.7657 152.679 54.5734 151.455C54.3998 150.349 54.3551 149.212 54.1641 148.11C54.06 147.511 53.7759 146.954 53.5663 146.381C53.3493 145.786 53.0913 145.208 52.9102 144.6C52.5654 143.438 51.9713 142.678 50.8948 142.497C50.1953 142.379 49.5032 142.187 48.8136 141.994C48.4031 141.878 48.1054 141.639 48.0533 141.035C48.0273 140.736 47.7755 140.449 47.5957 140.187C46.9793 139.288 46.9433 138.77 47.458 137.805C48.2766 136.272 47.995 135.037 46.6345 134.212C46.2612 133.986 45.8804 133.781 45.5021 133.564C44.8857 133.212 44.3363 133.354 43.8699 133.919C43.566 134.287 43.287 134.685 43.0054 135.078C42.5403 135.725 42.0467 136.332 41.3385 136.588C41.0843 136.681 40.8065 136.683 40.5088 136.73C40.5013 136.769 40.4815 136.84 40.4741 136.911C40.3897 137.843 39.9705 138.235 39.1904 138.05C38.7501 137.945 38.3135 137.792 37.8881 137.618C36.8909 137.208 35.9508 137.141 35.0603 137.997C34.6795 138.362 34.1884 138.285 33.7704 138.032C33.4306 137.826 33.0511 137.594 32.8328 137.247C32.3863 136.532 31.8269 136.541 31.2341 136.749C30.6028 136.97 29.9839 137.254 29.3761 137.555C28.7647 137.858 28.188 137.851 27.6199 137.438C27.0841 137.049 26.5372 136.681 26.0175 136.264C25.6888 136.001 25.4333 135.959 25.22 136.406C24.9149 137.046 24.4572 137.107 23.8917 136.999C23.1153 136.852 22.3277 136.722 21.5451 136.719C20.5851 136.715 20.2552 137.163 20.2589 138.303C20.2602 138.723 20.063 138.74 19.8286 138.711C19.1563 138.625 18.4829 138.547 17.8156 138.416C16.2702 138.111 14.7459 138.179 13.2068 138.534C12.3448 138.732 11.4431 138.686 10.5613 138.773C10.2264 138.807 9.89649 138.901 9.56534 138.979C9.1945 139.067 8.94397 139.296 8.94893 139.789C8.95265 140.134 8.77529 140.177 8.56321 140.091C7.77192 139.774 6.96822 139.487 6.20298 139.098C5.66346 138.824 5.35959 138.24 5.38564 137.528C5.43277 136.25 5.4923 134.968 5.62749 133.7C5.67462 133.261 5.96733 132.86 6.14344 132.44C6.28607 132.103 6.46715 131.777 6.55521 131.42C6.8566 130.191 7.08605 128.935 7.4234 127.721C7.57967 127.158 7.8885 126.64 8.18989 126.156C8.38585 125.844 8.67359 125.787 8.9787 126.108C9.20194 126.342 9.48349 126.529 9.76627 126.648C10.1557 126.815 10.3852 126.595 10.4186 126.103C10.4236 126.027 10.4211 125.95 10.4162 125.874C10.3107 124.306 10.5687 123.725 11.7842 123.11C13.2911 122.349 14.8638 122.188 16.4749 122.558C16.8842 122.652 17.3009 122.741 17.7164 122.761C18.1753 122.785 18.3601 122.534 18.3464 121.983C18.3365 121.583 18.2881 121.184 18.2646 120.783C18.1827 119.375 18.5412 118.143 19.325 117.084C19.3883 116.997 19.4565 116.915 19.5123 116.82C19.7852 116.362 19.7157 116.031 19.2593 115.941C18.7756 115.845 18.2658 115.8 17.7809 115.867C17.2587 115.941 16.7539 116.184 16.2367 116.329C15.3797 116.569 14.9804 116.175 15.1131 115.135C15.2135 114.347 15.4219 113.578 15.5918 112.804C15.8957 111.412 15.7902 110.102 15.2036 108.809C14.5748 107.421 14.7162 105.917 14.9419 104.431C14.9754 104.214 15.0114 103.998 15.0597 103.697C14.679 103.865 14.3875 104.013 14.0861 104.125C13.6992 104.267 13.3283 104.239 12.9848 103.936C11.7023 102.8 10.2562 101.998 8.71576 101.619C7.08605 101.22 6.03678 100.145 5.3075 98.48C5.07681 97.9542 4.84364 97.4283 4.639 96.8892C4.30785 96.0157 3.74973 95.506 2.96464 95.3292C2.27877 95.1746 2.15226 94.8726 2.47349 94.1361C2.56155 93.9328 2.64465 93.703 2.7848 93.5587C3.25858 93.0711 3.17796 92.585 2.82697 92.0842C2.26265 91.2799 1.66856 90.5022 1.13028 89.6729C0.743317 89.0778 0.321626 88.465 0.105819 87.7756C-0.232774 86.6945 0.263333 86.064 1.17617 86.4043C2.70914 86.9758 4.21111 87.6637 5.72547 88.3074C6.81071 88.7685 7.73595 89.5698 8.72568 90.24C10.1507 91.2048 11.7594 91.3153 13.3705 91.305C15.1726 91.2932 16.9127 90.7938 18.6739 90.4271C20.9138 89.9616 23.1351 90.0132 25.2597 91.1709C25.4023 91.249 25.6479 91.2372 25.7818 91.14C28.1198 89.449 30.604 89.1293 33.2284 89.9351C33.479 90.0117 33.7741 90.0014 34.0272 89.9262C37.1836 88.9938 40.3414 88.0673 43.4842 87.0745C44.0882 86.883 44.6699 86.4794 45.1883 86.0478C45.7179 85.6059 45.6683 85.0594 45.171 84.5777C44.3623 83.7956 44.1378 83.2211 44.562 82.0869C45.1722 80.4533 45.3012 78.7962 45.1883 77.0506C45.1474 76.4158 45.2379 75.7485 45.3706 75.1269C45.4612 74.7027 45.7006 74.3064 45.9263 73.9441C46.3827 73.2105 46.9135 72.5388 47.3402 71.7832C47.7606 71.0378 48.1898 70.3425 48.9104 69.9802C49.027 69.9213 49.151 69.8417 49.2341 69.7327C49.8927 68.8725 50.6889 68.9697 51.5137 69.251C52.5195 69.5943 53.5155 69.9846 54.5313 70.2836C55.7504 70.643 56.3954 70.2159 56.76 68.9167C56.925 68.326 56.7885 68.0446 56.2652 67.9592C55.9675 67.9106 55.6636 67.9106 55.2283 67.8782C55.4354 67.6131 55.5458 67.4083 55.7008 67.2846C56.1275 66.9428 56.5566 66.5908 57.0168 66.3242C58.0945 65.6996 58.9789 64.8055 59.7503 63.7317C59.9674 63.4297 60.2154 63.1601 60.456 62.8685C60.7177 63.2235 60.931 63.5608 61.1853 63.848C61.5909 64.3047 61.8898 64.2634 62.3226 63.8377C62.5781 63.5858 62.8683 63.3546 63.1759 63.2087C64.0057 62.8125 64.2884 62.9613 64.7796 63.8274C65.0475 64.2988 65.3526 64.7569 65.6986 65.1472C66.1017 65.6024 66.4515 65.6289 66.862 65.1811C67.6198 64.3548 68.3156 63.4503 69.056 62.6019C69.1801 62.459 69.4095 62.3456 69.5732 62.3706C70.5803 62.5253 70.9276 62.048 70.5196 60.9197C69.9242 59.2699 69.7258 57.5406 69.6452 55.7745C69.6253 55.3473 69.6836 55.0512 70.078 54.9069C70.3 54.8258 70.5059 54.6388 70.6907 54.4576C71.136 54.0186 71.2178 53.534 70.9623 52.9242C70.8557 52.6679 70.7192 52.4278 70.6026 52.1774C70.3447 51.6265 70.3806 51.3171 70.8966 51.186C71.6283 51.0004 71.6767 50.5556 71.6271 49.7911C71.5527 48.6745 72.0042 48.2046 72.9443 48.1369C74.4574 48.0279 75.9023 47.5933 77.253 46.7655C78.2836 46.1351 78.518 45.4398 78.0294 44.1863C77.7553 43.4836 77.5469 42.8178 77.5692 42.018C77.5916 41.2123 77.0756 40.6289 76.3798 40.5597C76.0834 40.5303 75.9618 40.4021 75.8874 40.081C75.6233 38.9423 75.338 37.8111 75.0304 36.5531C77.6238 37.16 80.1391 37.8715 82.766 37.3044C82.7176 37.1924 82.6655 37.0628 82.6072 36.9405C82.3269 36.3572 82.4174 36.0111 82.9656 35.8166C83.3005 35.6973 83.6627 35.6914 84.0099 35.6222C84.3733 35.55 84.7516 35.5205 85.0939 35.3718C85.7823 35.0727 86.0155 34.3952 85.6868 33.6159C85.4722 33.1077 85.1894 32.632 84.8943 32.1812C84.3461 31.3446 84.315 31.1118 84.7553 30.1735C85.44 28.7152 86.3702 27.4926 87.4442 26.4424C88.2393 25.6646 88.904 24.8103 89.3704 23.7055C89.8479 22.5757 89.8863 22.5993 89.1967 21.6197C89.0219 21.3708 88.852 21.1189 88.6659 20.8493C88.9785 20.4104 89.3009 20.0112 89.5713 19.5663C90.1021 18.6914 90.0439 18.3437 89.4584 17.5218C89.3034 17.3038 89.224 16.8634 89.2935 16.5909C89.6036 15.3786 89.668 14.7805 88.2975 13.7612C87.7382 13.3458 87.1838 12.9172 86.6629 12.4384C86.2722 12.0805 86.2598 11.7078 86.6095 11.3204C87.8052 9.99177 89.0194 8.68815 90.2535 7.34476C90.4817 7.55099 90.7558 7.79992 91.1117 8.12251C91.0807 7.66293 91.041 7.33151 91.0398 7.00008C91.0398 6.18256 91.2928 5.78779 91.9675 5.64491C92.44 5.54474 92.93 5.55505 93.4062 5.47257C94.0003 5.37093 94.2285 5.07927 94.2298 4.36486C94.2298 3.79922 94.1516 3.23359 94.1045 2.61639C94.1615 2.60903 94.2632 2.58546 94.3649 2.58252C96.0207 2.52212 97.6827 2.54569 99.331 2.38808C101.577 2.17302 103.815 1.82097 106.056 1.52342C106.696 1.43946 107.334 1.3334 107.976 1.2627C108.112 1.24797 108.324 1.29216 108.386 1.40116C108.865 2.23783 109.531 2.24961 110.238 2.01541C110.607 1.89315 110.967 1.70607 111.308 1.49691C112.505 0.758926 113.748 0.137315 115.095 0.0238931C115.88 -0.0423924 116.691 0.137315 117.477 0.297873C118.269 0.458432 119.043 0.733885 119.825 0.95631C120.345 1.10508 120.656 1.50869 120.822 2.09348C120.843 2.16565 120.865 2.23783 120.884 2.31148C121.304 3.87582 121.364 3.9259 122.726 3.81101C124.658 3.6475 125.618 4.31183 126.303 6.4639C126.576 7.32414 126.694 8.2654 126.803 9.18308C126.866 9.72073 126.638 10.1597 126.175 10.4175C125.679 10.6929 125.543 11.6901 125.919 12.2145C126.07 12.4252 126.28 12.6078 126.494 12.7154C127.036 12.9864 127.321 13.4666 127.452 14.125C127.624 15.0044 127.842 15.1576 128.58 14.8998C129.383 14.6185 130.178 14.3106 131.007 14.0028C131.174 14.3681 131.327 14.7422 131.507 15.0958C132.127 16.3154 132.998 16.9768 134.226 17.2022C135.244 17.3892 136.281 17.7884 137.19 18.3599C138.222 19.0095 139.269 19.1951 140.388 19.1951C141.307 19.1951 142.226 19.2305 143.145 19.2202C143.473 19.2172 143.659 19.3601 143.618 19.7416C143.537 20.512 143.455 21.2883 143.3 22.0425C143.197 22.5433 143.236 22.8998 143.623 23.1649C144.175 23.5435 144.18 24.2181 144.299 24.8545C144.557 26.2303 144.786 27.6252 145.177 28.9494C145.629 30.4755 146.627 31.2562 148.02 31.184C148.846 31.1413 149.575 31.3873 150.229 31.9956C150.368 32.1252 150.579 32.1547 150.762 32.2048C150.981 32.2652 151.214 32.2652 151.425 32.3477C151.864 32.5215 151.968 32.8529 151.665 33.2536C151.38 33.6307 151.045 33.9857 150.677 34.2405C149.577 35.002 149.349 35.712 149.475 37.2278C149.613 38.879 149.579 40.5509 149.635 42.2124C149.644 42.4673 149.675 42.7633 149.79 42.9622C150.53 44.2452 151.339 45.4575 152.46 46.3207C152.587 46.4179 152.679 46.6388 152.718 46.8215C153.108 48.6348 153.456 50.4613 153.875 52.2643C154.049 53.0126 154.365 53.7137 154.627 54.4649C154.291 54.5725 153.952 54.6609 153.625 54.7905C153.206 54.9555 152.939 55.3046 152.924 55.8452C152.897 56.8262 152.23 57.0884 151.581 56.7776C151.216 56.6023 150.87 56.1854 150.667 55.7715C150.413 55.253 150.326 54.6226 150.144 54.051C149.833 53.0774 149.455 52.8063 148.656 53.1923C147.904 53.5576 147.212 54.0982 146.487 54.5504C146.326 54.6505 146.145 54.7065 145.974 54.7816C145.93 54.5533 145.824 54.3103 145.857 54.0982C145.951 53.4987 146.124 52.9168 146.222 52.3173C146.265 52.0566 146.204 51.7708 146.191 51.4968C145.97 51.572 145.713 51.5852 145.537 51.734C145.065 52.1302 144.627 52.5869 144.174 53.0155C143.45 53.7005 143.176 53.6622 142.665 52.7533C142.316 52.1346 142.038 51.4556 141.665 50.859C140.992 49.7808 140.327 49.5245 139.464 49.9708C139.284 50.0636 139.111 50.2831 139.02 50.4952C138.788 51.0284 138.511 51.2744 138.052 51.024C137.402 50.669 136.735 50.2713 136.2 49.7204C135.082 48.567 134.047 47.3017 132.974 46.0865C132.816 45.9053 132.638 45.7477 132.576 45.6858L132.573 45.6784Z" fill="#1C76D0"/>
<path d="M71.4805 99.4331C71.4557 99.3903 71.4482 99.3594 71.4805 99.4331Z" fill="#1C76D0"/>
<path d="M76.3671 80.4269C76.3671 79.8377 75.0028 82.0473 76.3671 80.4269Z" fill="#1C76D0"/>
<path d="M114.124 69.8985C114.106 70.1136 114.208 70.3405 114.245 70.5629C114.328 71.0666 114.457 71.5704 114.473 72.0786C114.498 72.8711 114.156 73.3498 113.531 73.6267C113.156 73.7932 112.773 73.967 112.437 74.2189C111.662 74.8022 111.648 75.5107 112.36 76.1751C112.422 76.2325 112.474 76.3032 112.607 76.452C112.385 76.5963 112.202 76.7171 112.018 76.8335C111.195 77.3505 110.348 77.816 109.558 78.3949C108.8 78.9487 108.701 79.4201 108.919 80.4468C109.017 80.9108 109.12 81.3733 109.189 81.8432C109.34 82.8905 109.021 83.4679 108.149 83.7655C107.189 84.091 106.23 84.4195 105.267 84.7288C104.829 84.8688 104.567 85.1413 104.418 85.6819C104.093 86.8632 103.692 88.0151 103.348 89.1891C103.289 89.3909 103.311 89.6767 103.387 89.8726C103.611 90.4589 103.579 90.8271 103.174 91.2425C103.029 91.3913 102.864 91.5238 102.692 91.6211C101.725 92.172 101.042 93.0661 100.705 94.2415C100.483 95.0149 100.054 95.4862 99.5417 95.9149C98.449 96.8296 97.3539 97.7385 96.2488 98.6311C95.4488 99.2763 94.8436 100.095 94.8163 101.278C94.7791 102.844 94.0969 103.946 93.1357 104.858C92.7922 105.182 92.6867 105.406 92.8914 105.923C93.256 106.845 92.9633 107.563 92.1088 107.784C90.8846 108.1 89.6456 108.406 88.4004 108.524C86.9579 108.661 85.7003 109.215 84.6126 110.314C84.2963 110.635 83.9838 110.725 83.6452 110.496C83.0747 110.11 82.5302 109.665 81.9659 109.263C81.7947 109.141 81.5975 109.011 81.4065 108.997C80.2965 108.91 79.1852 108.845 78.0739 108.808C77.9102 108.804 77.6448 108.939 77.5914 109.091C76.9663 110.888 75.8886 112.227 74.6012 113.364C74.1485 113.763 73.7069 114.186 73.2344 114.548C73.0397 114.697 72.8623 114.895 72.7011 115.129L71.2822 112.096H68.4296C68.4296 112.096 68.1815 111.507 68.4296 109.739C68.6776 107.971 68.6776 107.382 69.4218 106.646C70.166 105.909 71.2822 107.088 71.6543 105.025C72.0264 102.963 71.6543 104.436 71.6543 102.963C71.6543 101.49 72.1504 101.196 71.6543 99.8699C71.5675 99.6372 71.5141 99.509 71.4868 99.4442C71.5563 99.5576 71.725 99.7094 71.6543 98.5442C71.5303 96.482 71.6543 96.1874 72.3984 95.7455C73.1426 95.3036 72.3984 98.3969 73.1426 95.7455C73.8868 93.0941 75.8712 93.0941 74.879 92.2103C73.8868 91.3265 73.5147 91.6211 73.5147 90.4426C73.5147 89.2642 73.2666 87.202 73.5147 86.9074C73.7627 86.6128 74.5069 87.0547 74.879 85.8763C75.2511 84.6979 74.0108 86.0236 75.127 83.8141C76.2433 81.6046 76.3673 81.0154 76.3673 80.4262C77.7316 78.8059 76.7394 79.2478 77.7316 78.8059C78.7238 78.364 78.7238 78.8059 78.7238 78.8059C78.7238 78.8059 79.716 78.9532 80.4602 77.4801C81.2043 76.0071 80.9563 76.0071 81.3284 74.8287C81.7004 73.6503 83.1888 70.2624 83.4368 69.2313C83.6849 68.2002 84.429 67.4637 84.8011 66.4326C85.1732 65.4014 85.4213 64.6649 84.8011 64.223C84.181 63.7811 84.181 64.223 84.181 64.223L83.4368 62.1608C82.6927 59.9513 82.6927 61.1297 82.6927 59.9513C82.6927 58.7729 84.6771 58.331 85.1732 58.331C85.6693 58.331 87.0336 59.6567 86.6615 58.331C86.2894 57.0053 86.7855 57.0053 86.7855 57.0053C86.7855 57.0053 85.2972 55.6796 85.9174 55.6796H87.6537C87.6537 55.6796 86.1654 54.0592 87.6537 53.1754C89.1421 52.2916 90.0102 51.5551 90.5064 51.1132C90.5064 51.1132 90.1343 47.578 93.359 47.578C96.5837 47.578 96.4596 47.1361 97.4519 47.578C98.4441 48.0199 98.4441 46.6942 99.5603 47.4307C100.677 48.1672 101.173 47.2834 102.289 49.3456C103.405 51.4078 103.901 52.7335 104.521 53.1754C105.142 53.6173 104.893 54.0592 105.638 54.9431C106.335 55.7709 106.924 57.2468 106.994 57.4295C106.971 57.3544 106.966 57.0775 108.49 57.5945C110.227 58.1837 110.723 58.1837 111.343 58.1837C111.963 58.1837 113.203 57.8891 113.699 58.7729C113.975 59.2634 114.749 60.1192 115.381 60.7821C115.008 61.3845 114.829 62.1358 114.744 62.8855C114.479 65.2144 114.315 67.5594 114.124 69.8985Z" fill="#1C76D0"/>
</g>
<defs>
<clipPath id="clip0_2903_845">
<rect width="154.624" height="153.554" fill="white"/>
</clipPath>
</defs>
</svg>
