<svg width="28" height="29" viewBox="0 0 28 29" fill="none" xmlns="http://www.w3.org/2000/svg">
<path d="M20.0114 18.2739H18.7467L18.2985 17.8431C19.9217 15.9671 20.8138 13.5719 20.8119 11.0948C20.8119 9.0439 20.2016 7.03902 19.0582 5.33372C17.9148 3.62843 16.2896 2.29931 14.3881 1.51445C12.4867 0.729591 10.3944 0.524235 8.37585 0.924354C6.35729 1.32447 4.50313 2.31209 3.04783 3.76233C1.59254 5.21256 0.601468 7.06027 0.199952 9.0718C-0.201564 11.0833 0.00450873 13.1683 0.79211 15.0632C1.57971 16.958 2.91347 18.5775 4.62472 19.717C6.33597 20.8564 8.34785 21.4646 10.4059 21.4646C12.9834 21.4646 15.3528 20.5233 17.1778 18.9599L17.6101 19.4066V20.6669L25.6146 28.6277L28 26.2506L20.0114 18.2739ZM10.4059 18.2739C6.41967 18.2739 3.20183 15.0672 3.20183 11.0948C3.20183 7.12243 6.41967 3.91579 10.4059 3.91579C14.3922 3.91579 17.6101 7.12243 17.6101 11.0948C17.6101 15.0672 14.3922 18.2739 10.4059 18.2739Z" fill="#323232"/>
</svg>
