<svg width="28" height="28" viewBox="0 0 28 28" fill="none" xmlns="http://www.w3.org/2000/svg">
<path d="M1.16676 11.6653C0.857319 11.6653 0.560548 11.5424 0.341737 11.3236C0.122927 11.1048 0 10.808 0 10.4985V1.16676C0 0.857319 0.122927 0.560548 0.341737 0.341737C0.560548 0.122927 0.857319 0 1.16676 0H10.5009C10.8103 0 11.1071 0.122927 11.3259 0.341737C11.5447 0.560548 11.6676 0.857319 11.6676 1.16676V10.4985C11.6676 10.808 11.5447 11.1048 11.3259 11.3236C11.1071 11.5424 10.8103 11.6653 10.5009 11.6653H1.16676ZM17.5015 11.6653C17.192 11.6653 16.8952 11.5424 16.6764 11.3236C16.4576 11.1048 16.3347 10.808 16.3347 10.4985V1.16676C16.3347 0.857319 16.4576 0.560548 16.6764 0.341737C16.8952 0.122927 17.192 0 17.5015 0H26.8332C27.1427 0 27.4395 0.122927 27.6583 0.341737C27.8771 0.560548 28 0.857319 28 1.16676V10.4985C28 10.808 27.8771 11.1048 27.6583 11.3236C27.4395 11.5424 27.1427 11.6653 26.8332 11.6653H17.5015ZM1.16676 28C0.857319 28 0.560548 27.8771 0.341737 27.6583C0.122927 27.4395 0 27.1427 0 26.8332V17.4991C0 17.1897 0.122927 16.8929 0.341737 16.6741C0.560548 16.4553 0.857319 16.3324 1.16676 16.3324H10.5009C10.8103 16.3324 11.1071 16.4553 11.3259 16.6741C11.5447 16.8929 11.6676 17.1897 11.6676 17.4991V26.8332C11.6676 27.1427 11.5447 27.4395 11.3259 27.6583C11.1071 27.8771 10.8103 28 10.5009 28H1.16676ZM17.5015 28C17.192 28 16.8952 27.8771 16.6764 27.6583C16.4576 27.4395 16.3347 27.1427 16.3347 26.8332V17.4991C16.3347 17.1897 16.4576 16.8929 16.6764 16.6741C16.8952 16.4553 17.192 16.3324 17.5015 16.3324H26.8332C27.1427 16.3324 27.4395 16.4553 27.6583 16.6741C27.8771 16.8929 28 17.1897 28 17.4991V26.8332C28 27.1427 27.8771 27.4395 27.6583 27.6583C27.4395 27.8771 27.1427 28 26.8332 28H17.5015Z" fill="#323232"/>
</svg>
