<svg width="136" height="118" viewBox="0 0 136 118" fill="none" xmlns="http://www.w3.org/2000/svg">
<rect width="54.3612" height="54.3612" rx="7" fill="#7E869E" fill-opacity="0.25"/>
<path d="M44.0683 14.1433H18.5803C17.0754 14.1433 15.8555 15.359 15.8555 16.8586V38.9963C15.8555 40.4959 17.0754 41.7115 18.5803 41.7115H44.0683C45.5732 41.7115 46.7931 40.4959 46.7931 38.9963V16.8586C46.7931 15.359 45.5732 14.1433 44.0683 14.1433Z" fill="#17958C" fill-opacity="0.5"/>
<path d="M41.3065 12.6118H14.2975C12.7897 12.6118 11.5674 13.8221 11.5674 15.3151V36.5578C11.5674 38.0508 12.7897 39.2611 14.2975 39.2611H41.3065C42.8143 39.2611 44.0366 38.0508 44.0366 36.5578V15.3151C44.0366 13.8221 42.8143 12.6118 41.3065 12.6118Z" fill="white" stroke="#17958C" stroke-width="0.75" stroke-miterlimit="10"/>
<path d="M40.3912 20.2695H15.5185C14.6895 20.2695 14.0176 20.9278 14.0176 21.7398V33.196C14.0176 34.008 14.6895 34.6663 15.5185 34.6663H40.3912C41.2201 34.6663 41.8921 34.008 41.8921 33.196V21.7398C41.8921 20.9278 41.2201 20.2695 40.3912 20.2695Z" fill="#17958C" fill-opacity="0.5"/>
<path d="M16.9843 26.8783C17.2879 26.8783 17.5341 26.6331 17.5341 26.3307C17.5341 26.0283 17.2879 25.7832 16.9843 25.7832C16.6807 25.7832 16.4346 26.0283 16.4346 26.3307C16.4346 26.6331 16.6807 26.8783 16.9843 26.8783Z" fill="#17958C"/>
<path d="M16.9843 29.4532C17.2879 29.4532 17.5341 29.2081 17.5341 28.9057C17.5341 28.6033 17.2879 28.3582 16.9843 28.3582C16.6807 28.3582 16.4346 28.6033 16.4346 28.9057C16.4346 29.2081 16.6807 29.4532 16.9843 29.4532Z" fill="#17958C"/>
<path d="M16.9843 31.9095C17.2879 31.9095 17.5341 31.6644 17.5341 31.362C17.5341 31.0596 17.2879 30.8145 16.9843 30.8145C16.6807 30.8145 16.4346 31.0596 16.4346 31.362C16.4346 31.6644 16.6807 31.9095 16.9843 31.9095Z" fill="#17958C"/>
<path d="M21.5867 22.1074H17.4771C16.9202 22.1074 16.4688 22.5874 16.4688 23.1795C16.4688 23.7716 16.9202 24.2516 17.4771 24.2516H21.5867C22.1436 24.2516 22.595 23.7716 22.595 23.1795C22.595 22.5874 22.1436 22.1074 21.5867 22.1074Z" fill="#17958C"/>
<path d="M24.6183 15.3687H15.0568C14.4829 15.3687 14.0176 15.8486 14.0176 16.4407C14.0176 17.0329 14.4829 17.5128 15.0568 17.5128H24.6183C25.1922 17.5128 25.6575 17.0329 25.6575 16.4407C25.6575 15.8486 25.1922 15.3687 24.6183 15.3687Z" fill="#17958C"/>
<path d="M39.1957 25.7832H18.8576C18.5528 25.7832 18.3057 26.0575 18.3057 26.3958C18.3057 26.7342 18.5528 27.0085 18.8576 27.0085H39.1957C39.5005 27.0085 39.7476 26.7342 39.7476 26.3958C39.7476 26.0575 39.5005 25.7832 39.1957 25.7832Z" fill="#17958C"/>
<path d="M31.5465 28.2339H18.8489C18.5489 28.2339 18.3057 28.5082 18.3057 28.8465C18.3057 29.1849 18.5489 29.4591 18.8489 29.4591H31.5465C31.8465 29.4591 32.0898 29.1849 32.0898 28.8465C32.0898 28.5082 31.8465 28.2339 31.5465 28.2339Z" fill="#17958C"/>
<path d="M20.4505 27.0085C20.7889 27.0085 21.0631 26.7342 21.0631 26.3958C21.0631 26.0575 20.7889 25.7832 20.4505 25.7832C20.1122 25.7832 19.8379 26.0575 19.8379 26.3958C19.8379 26.7342 20.1122 27.0085 20.4505 27.0085Z" fill="#17958C"/>
<path d="M20.4505 29.4591C20.7889 29.4591 21.0631 29.1849 21.0631 28.8465C21.0631 28.5082 20.7889 28.2339 20.4505 28.2339C20.1122 28.2339 19.8379 28.5082 19.8379 28.8465C19.8379 29.1849 20.1122 29.4591 20.4505 29.4591Z" fill="#17958C"/>
<path d="M31.5465 30.6843H18.8489C18.5489 30.6843 18.3057 30.9586 18.3057 31.297C18.3057 31.6353 18.5489 31.9096 18.8489 31.9096H31.5465C31.8465 31.9096 32.0898 31.6353 32.0898 31.297C32.0898 30.9586 31.8465 30.6843 31.5465 30.6843Z" fill="#17958C"/>
<path d="M20.4505 31.9096C20.7889 31.9096 21.0631 31.6353 21.0631 31.297C21.0631 30.9586 20.7889 30.6843 20.4505 30.6843C20.1122 30.6843 19.8379 30.9586 19.8379 31.297C19.8379 31.6353 20.1122 31.9096 20.4505 31.9096Z" fill="#17958C"/>
<path d="M26.3775 87.8373L24.521 91.2588L22.9307 84.9157L48.9671 77.8455L26.3775 87.8373Z" fill="#E8BB1E"/>
<path d="M28.5796 89.5447L24.542 91.2587L26.3985 87.8372L28.5796 89.5447Z" fill="#0B5243"/>
<path d="M20.711 80.5853L48.948 77.8455L22.931 84.9157L20.0944 82.8771C19.1466 82.1954 19.5491 80.7021 20.711 80.5853Z" fill="#68B835" fill-opacity="0.36"/>
<path d="M48.949 77.8455L26.3789 87.8373L31.7017 91.8107C32.7663 92.6027 34.2528 92.4989 35.194 91.564L48.949 77.8455Z" fill="#68B835" fill-opacity="0.36"/>
<path d="M22.8438 91.4358C20.2132 91.4358 16.7495 93.8352 16.9231 96.1338C17.0002 97.1532 17.9992 97.7734 19.1062 97.4904C20.2132 97.2075 20.6877 96.2617 19.9818 95.4671C19.0407 94.405 16.6222 94.06 13.6985 96.1842C11.2415 97.9672 9.52887 100.777 8.95801 103.549" stroke="#E8BB1E" stroke-width="1.34152" stroke-linecap="round" stroke-linejoin="round"/>
<rect x="2" y="63.4939" width="54.3612" height="54.3612" rx="7" fill="#7E869E" fill-opacity="0.25"/>
<rect x="66.9727" y="49" width="69" height="69" rx="7" fill="#7E869E" fill-opacity="0.25"/>
<rect x="78.79" y="59.145" width="48.7076" height="48.7076" rx="10.2989" fill="#0B5243"/>
<rect x="78.1527" y="59.6278" width="47.7421" height="47.7421" rx="9.81609" fill="white" stroke="#0B5243" stroke-width="0.965517"/>
<path d="M78.1672 67.0601C78.4166 62.9135 81.8585 59.6278 86.0678 59.6278H117.98C122.189 59.6278 125.631 62.9135 125.88 67.0601H78.1672Z" fill="#17958C" stroke="#0B5243" stroke-width="0.965517"/>
<path d="M82.6589 65.2035C83.5589 65.2035 84.2885 64.4739 84.2885 63.5739C84.2885 62.6739 83.5589 61.9443 82.6589 61.9443C81.7589 61.9443 81.0293 62.6739 81.0293 63.5739C81.0293 64.4739 81.7589 65.2035 82.6589 65.2035Z" fill="#E8BB1E" stroke="#E8BB1E" stroke-width="0.965517" stroke-miterlimit="10"/>
<path d="M87.5515 65.2035C88.4515 65.2035 89.1811 64.4739 89.1811 63.5739C89.1811 62.6739 88.4515 61.9443 87.5515 61.9443C86.6515 61.9443 85.9219 62.6739 85.9219 63.5739C85.9219 64.4739 86.6515 65.2035 87.5515 65.2035Z" fill="#E8BB1E" stroke="#E8BB1E" stroke-width="0.965517" stroke-miterlimit="10"/>
<path d="M92.447 65.2035C93.347 65.2035 94.0766 64.4739 94.0766 63.5739C94.0766 62.6739 93.347 61.9443 92.447 61.9443C91.547 61.9443 90.8174 62.6739 90.8174 63.5739C90.8174 64.4739 91.547 65.2035 92.447 65.2035Z" fill="#E8BB1E" stroke="#E8BB1E" stroke-width="0.965517" stroke-miterlimit="10"/>
<path d="M97.6761 85.6733C92.8152 85.6733 86.4148 90.0666 86.7356 94.2754C86.8781 96.142 88.7241 97.2776 90.7696 96.7595C92.8152 96.2414 93.6919 94.5096 92.3876 93.0546C90.6485 91.1099 86.1796 90.4783 80.7771 94.3676C76.237 97.6325 73.0724 102.778 72.0176 107.853" stroke="#17958C" stroke-width="1.34152" stroke-linecap="round" stroke-linejoin="round"/>
<path d="M100.286 74.556C100.286 79.4802 106.333 85.1727 109.413 87.7526C110.435 88.6089 111.894 88.5945 112.897 87.7155C115.859 85.1185 121.596 79.4568 121.596 74.556C121.596 67.9493 116.69 63.4937 111.171 63.4937C105.652 63.4936 100.286 67.9493 100.286 74.556Z" fill="#17958C" fill-opacity="0.15"/>
<path d="M110.941 79.5846C113.943 79.5846 116.377 77.1508 116.377 74.1485C116.377 71.1462 113.943 68.7124 110.941 68.7124C107.939 68.7124 105.505 71.1462 105.505 74.1485C105.505 77.1508 107.939 79.5846 110.941 79.5846Z" fill="#17958C"/>
<path d="M131.081 96.8991L119.999 91.3488C119.971 91.3324 119.938 91.3269 119.905 91.3269H119.192C119.131 91.3269 119.071 91.3542 119.033 91.3979C118.994 91.4416 118.978 91.5072 118.989 91.5673L121.146 103.684C121.162 103.782 121.25 103.853 121.349 103.853H122.063C122.118 103.853 122.172 103.832 122.211 103.793L124.621 101.395L127.201 104.87C127.239 104.924 127.299 104.951 127.365 104.951H128.079C128.123 104.951 128.167 104.935 128.2 104.913L130.521 103.209C130.565 103.176 130.593 103.127 130.604 103.072C130.609 103.018 130.598 102.963 130.565 102.919L127.612 99.0897L131.081 97.2706C131.147 97.2323 131.191 97.1668 131.191 97.0848C131.191 97.0029 131.147 96.9373 131.076 96.9046L131.081 96.8991Z" fill="#0B5243"/>
<path d="M119.187 91.5344L121.344 103.646L124.335 100.668L127.36 104.744L129.682 103.039L126.58 99.0132L130.269 97.0848L119.187 91.5344Z" fill="white" stroke="#0B5243" stroke-width="0.75" stroke-linecap="round" stroke-linejoin="round"/>
<rect x="67.2334" width="68.7125" height="40.4447" rx="7" fill="#7E869E" fill-opacity="0.25"/>
<path d="M80.0666 33.4865C75.8274 33.4865 73.0218 27.9879 74.6701 24.2095C76.0424 21.0635 79.3067 18.8955 82.8518 20.0345C81.6964 13.7896 89.0943 10.4237 93.5385 14.3198C94.4455 11.166 99.2683 5.95012 107.214 7.1284C115.263 8.32239 117.144 15.5727 117.144 18.1257C120.784 16.4997 125.805 18.1414 128.005 22.1711C130.06 25.9337 128.781 32.2258 125.189 33.4826H80.0666L80.0666 33.4865Z" fill="#17958C" fill-opacity="0.5"/>
</svg>
