<svg width="133" height="154" viewBox="0 0 133 154" fill="none" xmlns="http://www.w3.org/2000/svg">
<g clip-path="url(#clip0_2903_823)">
<path d="M17.2871 97.567C17.1538 96.9842 17.0366 96.5183 16.9436 96.0464C16.8446 95.5423 17.0487 95.1309 17.5134 94.9615C18.7258 94.5158 19.9524 94.1064 21.185 93.7152C21.7406 93.5398 22.1407 93.7959 22.5752 94.1972C23.1066 94.6872 23.7936 95.0119 24.4241 95.391C25.2909 95.9113 26.1598 96.4316 27.0469 96.9176C27.449 97.1374 27.8996 97.2705 28.3239 97.452C28.4674 97.5145 28.627 97.5811 28.7321 97.692C29.4575 98.4704 30.1526 99.2751 30.8942 100.037C31.1245 100.273 31.4519 100.421 31.7509 100.582C32.05 100.743 32.3854 100.846 32.6764 101.019C33.1755 101.318 33.6847 101.386 34.2485 101.243C34.7435 101.118 35.2143 100.983 35.6771 101.471C35.8973 101.705 36.3924 101.673 36.7561 101.782C37.0248 101.862 37.2855 101.971 37.5462 102.08C39.2698 102.802 40.957 102.496 42.6059 101.846C42.913 101.725 43.1332 101.36 43.3596 101.08C43.4384 100.983 43.4101 100.802 43.4303 100.658C43.2868 100.66 43.1353 100.63 43.0039 100.671C42.1755 100.923 41.3632 101.257 40.5185 101.423C40.1043 101.503 39.6274 101.294 39.1869 101.185C38.5666 101.032 37.9563 100.842 37.338 100.685C36.7541 100.535 36.0751 100.55 35.5962 100.245C34.2666 99.3961 32.832 98.8314 31.3529 98.3373C30.678 98.1115 30.1061 97.8231 29.8798 96.9801C29.7747 96.5929 29.0978 96.353 28.6694 96.0626C28.3886 95.873 28.0936 95.7056 27.7945 95.5483C27.4773 95.3809 27.1499 95.2277 26.8206 95.0885C26.1012 94.784 25.3798 94.4916 24.6564 94.1972C24.418 94.1004 24.1715 94.0197 23.8906 93.9169C24.3513 93.1788 23.9048 92.6525 23.4683 92.1382C22.6459 91.1662 22.8257 91.3457 23.3551 90.4422C23.436 90.3031 23.5208 90.1639 23.6017 90.0248C23.7775 89.7162 23.7229 89.4722 23.3349 89.5206C22.947 89.569 22.9126 89.3754 22.8459 89.0891C22.7126 88.5204 22.5388 87.9618 22.3691 87.4011C22.2155 86.899 22.7045 86.2355 23.3774 86.048C23.9553 85.8867 24.5756 86.2638 24.6928 86.8889C24.5251 86.9071 24.3614 86.9232 24.1008 86.9494C24.3251 87.4758 24.9474 87.9436 24.1129 88.4942C24.8545 88.597 24.9454 88.2179 24.9474 87.8226C24.9494 87.2902 24.909 86.8123 25.689 86.8042C26.0163 86.8002 26.0143 86.4937 25.7658 86.286C25.6183 86.1609 25.4445 86.0661 25.3657 86.0137C26.7114 84.4448 28.0228 82.898 29.3544 81.3714C30.4577 80.109 31.6923 78.9454 32.6764 77.5983C34.0201 75.7592 35.279 73.8434 36.4004 71.863C38.3948 68.338 40.1083 64.6657 41.2177 60.7635C42.0886 57.7002 42.9433 54.6249 43.1918 51.4144C43.3757 49.0408 43.7253 46.6794 44.0526 44.3199C44.1314 43.7573 44.4366 43.2269 44.6103 42.6744C45.0751 41.1941 45.6328 39.7301 45.948 38.2176C46.2592 36.7233 46.34 35.1785 46.4774 33.652C46.5865 32.446 47.0654 31.9903 48.2455 32.1798C48.6254 32.2403 48.9749 32.4823 49.4579 32.692C49.4579 32.7283 49.4963 32.928 49.4518 33.1055C49.1911 34.142 49.5508 35.116 50.4399 35.717C52.0039 36.7737 53.6366 36.451 54.6469 34.8438C55.1359 34.0674 55.8957 33.9484 56.6898 33.8637C57.6961 33.7548 57.688 33.7649 58.1689 34.6986C58.7791 35.8844 59.4399 37.0459 60.0036 38.2519C60.2057 38.6834 60.2663 39.2199 60.2481 39.7018C60.2198 40.446 60.0319 41.182 59.9854 41.9262C59.9673 42.2105 60.1128 42.5292 60.2582 42.7933C60.5391 43.3015 60.8361 43.8057 61.1938 44.2614C61.5777 44.7515 61.8424 44.7293 62.3031 44.3401C62.588 44.1001 62.9012 43.7371 63.2165 43.721C63.952 43.6827 64.7279 43.721 65.4271 43.9287C65.7322 44.0194 65.9484 44.576 66.106 44.9612C66.2697 45.3625 66.4131 45.8183 66.3828 46.2377C66.3424 46.7681 66.1262 47.2864 65.9544 47.7986C65.9443 47.8289 65.6352 47.8127 65.5059 47.7421C65.1038 47.5284 64.7804 47.6191 64.7178 48.0467C64.5137 49.4543 63.5681 50.0713 62.3395 50.4686C61.9293 50.5997 61.5777 50.9022 61.1756 51.0676C61.0261 51.1281 60.725 51.0857 60.6341 50.9768C60.0723 50.2831 59.3934 50.0613 58.5265 50.2851C58.1507 50.3819 57.7183 50.2992 57.3728 50.4464C57.1646 50.5352 56.9383 50.9203 56.9626 51.1462C57.0353 51.844 57.1343 52.5619 57.3849 53.2112C57.8617 54.4494 58.4417 55.6493 58.9974 56.8573C59.1873 57.2687 59.1792 57.6155 58.8923 57.9826C58.7266 58.1963 58.4942 58.5089 58.5488 58.7106C58.7044 59.2934 58.4356 59.5293 57.9587 59.6564C58.0423 60.1565 58.501 60.6291 59.3348 61.0741C59.0236 61.5359 58.7488 62.0158 58.4033 62.4413C57.9062 63.0483 57.3667 63.6211 56.8272 64.1898C56.6918 64.3329 56.5019 64.4418 56.316 64.5124C55.9421 64.6536 55.5562 64.7544 55.1803 64.8714C55.5825 65.2687 55.8795 65.5853 56.2048 65.8676C56.3119 65.9604 56.4998 66.0027 56.6453 65.9946C56.9969 65.9765 57.3243 65.9241 57.49 66.3657C57.5243 66.4564 57.8052 66.5149 57.9587 66.4927C59.1671 66.3133 60.1693 66.7206 60.9634 67.5979C61.6242 68.3299 62.3759 68.5658 63.3074 68.2593C64.2611 67.9447 65.1482 68.1303 65.9787 68.6425C66.1989 68.7776 66.4778 68.9288 66.5707 69.1406C66.888 69.8706 67.5063 70.0602 68.1913 70.2618C68.6924 70.4111 69.1855 70.6813 69.6017 71.0019C70.1816 71.4516 70.709 71.613 71.4405 71.3226C72.1801 71.0281 73.0045 70.9475 73.7663 70.6974C74.1421 70.5724 74.5624 70.3445 74.7766 70.036C75.1019 69.5641 75.304 68.9954 75.4899 68.4428C75.7182 67.7632 76.0577 67.1986 76.7003 66.8416C76.8053 66.7831 76.9205 66.7126 76.9811 66.6158C77.9025 65.1598 79.4605 64.5971 80.9052 63.9316C82.5036 63.1935 83.821 62.1913 84.6737 60.6586C85.1789 59.7512 85.6012 58.7912 85.9811 57.8233C86.4115 56.7242 85.7992 54.7459 84.8233 54.1974C84.9283 54.4091 84.9991 54.6511 85.1445 54.8306C85.8821 55.734 85.8154 56.7484 85.5547 57.7729C85.1405 59.3983 84.1484 60.7232 83.1401 62.0058C82.8653 62.3546 82.2267 62.5563 81.7438 62.5785C79.9495 62.6652 78.5512 63.4638 77.3408 64.7201C77.163 64.9057 76.8073 65.0428 76.5548 65.0146C75.7425 64.9278 75.3181 65.432 74.9362 65.9846C74.8493 66.1096 74.9201 66.4121 75.013 66.5815C75.3262 67.1441 75.3222 67.6926 75.0595 68.2654C74.8999 68.6122 74.815 69.0075 74.6028 69.314C74.4109 69.5903 74.1239 69.8908 73.8188 69.9856C72.8731 70.278 71.9073 70.528 70.9313 70.6873C70.5656 70.7478 70.1109 70.5825 69.7694 70.3889C69.3734 70.163 69.0258 69.8242 68.7147 69.4814C67.3325 67.9609 65.5079 67.2611 63.5984 66.7368C63.2306 66.6359 62.7921 66.6904 62.4082 66.7751C61.4585 66.9848 60.9715 66.6379 60.9251 65.6619C60.9069 65.3009 60.82 64.9399 60.8442 64.583C60.8584 64.3854 61.0039 64.1635 61.1534 64.0143C61.5151 63.6473 61.9091 63.3085 62.3011 62.9697C62.4971 62.7983 62.7032 62.6329 62.9255 62.4958C64.9542 61.2414 66.985 59.9871 69.0238 58.7469C69.729 58.3173 70.4807 57.9624 71.1657 57.5067C71.394 57.3554 71.5173 57.0085 71.6345 56.7282C71.974 55.9196 72.2164 55.0786 73.2934 54.875C73.6854 54.8003 74.0674 54.4515 74.3624 54.1389C75.0635 53.3988 75.797 52.822 76.8882 52.7373C77.4034 52.697 77.8965 52.3542 78.4764 52.1142C79.0765 52.7756 79.9818 52.8906 80.8769 53.0761C81.6003 53.2274 82.2873 53.6025 83.0107 53.6791C83.726 53.7557 84.4676 53.5803 85.2072 53.5157C85.2577 53.0923 85.3123 52.7595 85.3345 52.4227C85.3668 51.9629 85.0152 51.967 84.7121 51.967C83.4755 51.967 82.2409 51.9851 81.0042 51.9932C80.5981 51.9972 80.194 51.9871 79.7878 51.9992C79.1755 52.0154 78.7896 51.7129 78.4481 51.2208C77.9329 50.4787 77.3267 49.7991 76.7892 49.0711C76.6376 48.8654 76.5042 48.5831 76.5063 48.337C76.5123 47.0444 76.5851 45.7517 76.5952 44.4591C76.6033 43.5556 76.8437 42.755 77.4014 42.0371C77.7853 41.543 78.143 41.0248 78.4643 40.4883C78.8118 39.9075 79.2685 39.5445 79.9616 39.4961C80.1515 39.482 80.3354 39.3993 80.5233 39.3469L80.5334 39.1231C80.2061 39.0827 79.8727 38.992 79.5494 39.0142C79.1432 39.0404 78.8381 39.0101 78.6987 38.5544C78.5997 38.2277 78.3592 38.2257 78.0642 38.3346C77.7267 38.4596 77.365 38.5141 77.0236 38.633C76.8053 38.7097 76.5568 38.8004 76.4133 38.9658C75.9061 39.5546 75.4293 39.7301 74.6594 39.4498C74.0148 39.2138 73.3904 38.9174 72.76 38.6431C72.2205 38.4072 71.681 38.2902 71.1273 38.5967C71.1091 38.6068 71.0909 38.6129 71.0707 38.6189C70.1816 38.9053 68.2883 37.3424 68.5591 36.4712C68.6823 36.0739 69.1349 35.6908 69.533 35.4891C70.0846 35.2108 70.2524 34.8619 70.0665 34.3255C69.8967 33.8375 69.9452 33.41 70.1433 32.928C70.2766 32.6033 70.2261 32.1839 70.1998 31.8128C70.1493 31.115 70.0442 30.4213 69.9796 29.7256C69.9371 29.2739 69.9291 28.8181 69.9008 28.3644C69.8967 28.3099 69.8624 28.2171 69.826 28.2091C68.9955 28.0094 69.2966 27.0132 68.7167 26.6341C68.6561 26.5958 68.6621 26.4586 68.6237 26.3255C69.3471 26.1803 69.2542 26.7894 69.4886 27.3036C69.5552 27.0294 69.6219 26.9144 69.5977 26.8237C69.5189 26.5312 69.4118 26.2469 69.3067 25.9646C69.0258 25.2104 69.04 24.5348 69.628 23.8874C70.2018 23.2542 70.2423 22.4113 70.2988 21.6026C70.4302 19.7433 71.0707 18.1602 72.6953 17.0914C73.1338 16.803 73.5925 16.5368 73.9986 16.2061C74.4169 15.8673 74.8999 15.5285 75.1484 15.0768C75.9082 13.6994 77.1367 13.157 78.5774 12.8404C79.313 12.679 80.0384 12.4027 80.7254 12.0841C82.3763 11.3178 84.0049 10.5051 85.6335 9.69643C86.2862 9.37176 86.9106 9.0128 87.6946 9.13379C87.9128 9.16808 88.1735 9.05514 88.3917 8.96036C90.1436 8.18598 92.0087 7.9339 93.8919 7.81895C94.5426 7.77862 95.2033 7.93592 95.8499 8.00045C95.9853 8.89583 96.1288 9.84768 96.25 10.6563C97.0179 10.86 97.6827 11.0375 98.3939 11.225C98.4404 11.1524 98.5798 10.9387 98.6991 10.7572C98.1009 10.3297 97.4968 9.89809 96.8926 9.46654C96.935 9.44637 96.9795 9.42822 97.0219 9.40805C96.929 9.17009 96.8138 8.93616 96.7532 8.69013C96.7168 8.5409 96.6966 8.30093 96.7815 8.22228C97.8059 7.27245 99.5801 7.22001 100.665 8.16379C101.091 8.53485 101.405 8.51872 101.841 8.26664C103.516 7.29665 105.391 7.03448 107.267 6.92962C108.835 6.84089 110.273 6.40933 111.712 5.85879C112.838 5.42723 113.977 4.98761 115.151 4.74158C115.846 4.59638 116.618 4.82023 117.356 4.87467C117.61 4.89282 117.877 4.95332 118.122 4.90896C118.784 4.78796 118.865 4.85854 118.705 5.53411C118.693 5.58654 118.716 5.64704 118.744 5.89912C119.005 5.64503 119.17 5.48168 119.362 5.29615C120.292 5.43126 120.676 5.98584 120.581 6.9518C120.542 7.34101 120.698 7.7524 120.779 8.15169C120.88 8.6619 121.019 9.16808 121.1 9.6803C121.324 11.104 122.29 11.8583 123.509 12.4007C123.711 12.4915 123.929 12.5621 124.109 12.6871C125.244 13.4675 126.451 13.9374 127.796 13.5542C127.796 14.2359 127.734 14.8933 127.827 15.5265C127.867 15.7967 128.188 16.1476 128.459 16.2384C129.433 16.5631 130.431 16.8373 131.44 17.041C131.866 17.1257 131.997 17.287 132.074 17.6803C132.317 18.8983 132.379 20.0458 131.66 21.1852C131.333 21.7014 131.294 22.4133 131.189 23.0465C131.155 23.2522 131.322 23.4902 131.395 23.712C131.539 24.1415 131.765 24.563 131.807 25.0026C131.953 26.5474 132.115 28.1002 132.11 29.649C132.108 30.4959 131.813 31.347 131.603 32.1859C131.326 33.293 130.864 34.3033 130.124 35.2068C129.425 36.0598 128.837 37.0016 128.198 37.905C128.176 37.9373 128.144 37.9736 128.14 38.0099C127.998 39.3893 127.069 40.5367 127.055 41.9726C127.033 44.2534 126.903 46.5342 126.814 48.815C126.808 48.9945 126.774 49.176 126.729 49.3514C126.388 50.7066 125.903 50.884 124.717 50.1681C124.487 50.029 124.125 50.0229 123.842 50.0693C123.02 50.2004 122.199 50.5553 121.516 49.6942C121.387 49.5309 121.001 49.5329 120.732 49.5248C119.649 49.4946 118.564 49.4623 117.481 49.4946C117.085 49.5067 116.671 49.6519 116.311 49.8293C116.032 49.9665 115.792 50.2246 115.6 50.4787C115.454 50.6683 115.361 50.9324 115.337 51.1724C115.291 51.6161 115.355 52.0739 115.289 52.5135C115.232 52.8866 115.303 53.1386 115.622 53.3363C115.862 53.4855 116.111 53.6327 116.311 53.8263C116.61 54.1147 116.517 54.3668 116.119 54.393C115.668 54.4252 115.321 54.516 115.048 54.9334C114.947 55.0887 114.569 55.0645 114.199 55.1492C114.82 56.1051 114.672 57.1558 114.664 58.1963C114.664 58.3819 114.824 58.6138 114.977 58.7469C115.434 59.1442 115.903 59.5354 116.412 59.8601C116.687 60.0335 117.053 60.1323 117.38 60.1424C117.903 60.1565 118.427 60.0496 118.952 60.0315C119.182 60.0234 119.494 60.0254 119.637 60.1605C120.508 60.9934 121.668 60.9934 122.725 61.2818C123.218 61.4149 123.436 61.0317 123.692 60.7091C123.884 60.4671 124.127 60.2654 124.347 60.0456C124.537 60.3158 124.759 60.5719 124.909 60.8623C125.054 61.1467 125.087 61.4915 125.242 61.7678C125.446 62.1288 125.661 62.526 125.978 62.7741C127.178 63.7159 127.546 65.19 126.861 66.5633C126.626 67.0332 126.384 67.5011 126.178 67.983C125.687 69.1386 125.63 70.278 126.279 71.4194C126.853 72.4337 126.392 72.6576 125.491 72.6778C124.668 72.6959 124.194 73.0004 123.987 73.7808C123.921 74.0329 123.796 74.2689 123.707 74.5169C123.496 75.1038 123.086 75.4224 122.474 75.5535C121.27 75.8096 120.601 76.5436 120.423 77.7415C120.302 78.5582 120.075 78.772 119.229 78.7962C118.602 78.8143 117.972 78.7962 117.346 78.7861C116.756 78.774 116.378 79.018 116.273 79.621C116.252 79.74 116.196 79.8549 116.188 79.9739C116.133 80.7967 115.679 81.2 114.874 81.2847C114.452 81.3291 114.189 81.5388 114.139 82.0188C114.042 82.9605 114.02 82.9585 114.963 83.142C115.042 83.1582 115.133 83.1642 115.196 83.2086C116.347 84.0334 117.808 84.4206 118.641 85.6951C119.116 86.4191 118.996 87.0402 118.324 87.508C118.089 87.6714 117.893 88.0061 117.843 88.2905C117.719 88.9923 117.384 89.4682 116.737 89.7727C116.493 89.8877 116.299 90.1175 116.099 90.3111C115.454 90.9403 114.949 90.9807 114.317 90.3414C113.957 89.9784 113.684 89.9582 113.27 90.2325C112.993 90.416 112.639 90.5068 112.308 90.5834C110.475 91.0129 108.802 91.7672 107.307 92.9166C106.917 93.2151 106.521 93.3442 105.977 93.0457C105.468 92.7674 104.824 92.7331 104.155 92.5718C104.211 93.078 104.276 93.5216 104.308 93.9673C104.329 94.2698 104.345 94.659 103.888 94.5884C103.52 94.5319 102.92 94.9837 102.837 94.1266C102.775 93.4873 102.154 93.4551 101.7 93.4631C101.176 93.4752 100.865 93.3643 100.693 92.846C100.536 92.3681 100.146 92.2491 99.6669 92.3177C99.2487 92.3782 98.8183 92.3742 98.402 92.4407C97.6887 92.5536 97.2543 92.2491 96.9653 91.6179C96.834 91.3295 96.636 91.0613 96.4258 90.8193C96.1712 90.5249 95.8722 90.4079 95.4559 90.5955C95.1144 90.7488 94.7184 90.7851 94.2476 90.896C94.9002 91.6683 95.4842 92.3157 96.0075 93.0094C96.1652 93.2191 96.153 93.5579 96.2177 93.8382C95.9853 93.8624 95.7327 93.9592 95.5246 93.8987C94.5749 93.6325 93.6414 93.3139 92.6937 93.0396C92.5765 93.0054 92.3926 93.0901 92.2835 93.1768C92.0147 93.3885 91.7541 93.6184 91.5177 93.8685C90.9984 94.415 90.4427 94.7397 89.6284 94.536C89.4122 94.4815 89.0464 94.7336 88.8585 94.9433C88.6221 95.2055 88.7474 95.4798 89.0343 95.7117C89.1879 95.8367 89.2465 96.0827 89.3434 96.2743C89.4485 96.484 89.5172 96.72 89.6587 96.9015C90.0143 97.3572 89.9678 98.1619 89.5314 98.5329C89.4384 98.6116 89.3152 98.664 89.2465 98.7568C89.1131 98.9363 89.006 99.1379 88.8888 99.3315C89.1151 99.3961 89.3414 99.5191 89.5657 99.513C90.4225 99.4908 91.0024 99.9809 91.5561 100.527C91.6288 100.598 91.6571 100.751 91.645 100.86C91.5924 101.395 91.5136 101.925 91.457 102.457C91.4045 102.949 91.645 103.282 92.0895 103.443C92.6593 103.649 93.2433 103.821 93.8232 103.998C94.2698 104.135 94.4577 104.369 94.2556 104.853C94.0617 105.319 93.9263 105.807 93.7666 106.287C93.6555 106.626 93.6676 106.926 94.0212 107.126C94.0556 107.146 94.094 107.168 94.1162 107.2C94.7689 108.09 95.4236 108.979 96.0702 109.872C96.3773 110.296 96.638 110.756 96.9734 111.155C97.3816 111.639 97.6564 112.151 97.62 112.801C97.616 112.881 97.5978 112.974 97.6281 113.041C98.2788 114.519 97.8201 115.987 97.6059 117.459C97.5938 117.538 97.5594 117.667 97.5938 117.693C98.2909 118.199 97.7877 118.971 98.008 119.589C98.0969 119.837 98.0605 120.246 97.9049 120.444C97.4624 121 96.9168 121.474 96.4339 122.002C96.2096 122.248 96.0035 122.525 95.8499 122.819C95.1569 124.138 94.4415 125.437 93.4292 126.554C93.2655 126.733 93.2675 127.07 93.211 127.336C93.1867 127.449 93.2534 127.605 93.1968 127.685C92.625 128.518 93.0614 129.371 93.1544 130.204C93.209 130.704 93.6171 130.855 94.0657 130.583C94.4799 130.333 94.8497 130.013 95.2458 129.73C95.3933 129.625 95.5489 129.49 95.7146 129.468C95.8903 129.446 96.0823 129.543 96.2662 129.587C96.1914 129.75 96.1369 129.93 96.0338 130.075C95.955 130.186 95.8136 130.248 95.7024 130.337C95.4438 130.547 95.4721 130.714 95.7509 130.902C96.3106 131.279 96.3106 131.396 95.7873 131.803C95.6277 131.928 95.4559 132.035 95.2821 132.138C94.3809 132.666 93.4757 133.189 92.5724 133.715C92.5199 133.745 92.4492 133.774 92.429 133.822C92.041 134.733 91.0812 134.998 90.4366 135.611C90.0183 136.008 89.7718 136.587 89.4505 137.085C89.2889 137.337 89.1697 137.631 88.9615 137.833C88.5008 138.281 88.0442 138.188 87.7229 137.633C87.5451 137.327 87.3632 137.024 87.1834 136.72C86.8419 136.921 86.4964 137.121 86.1569 137.329C86.0902 137.369 85.9851 137.446 85.9912 137.492C86.0902 138.107 86.0114 138.882 86.361 139.297C86.854 139.884 87.1066 140.358 86.8176 141.074C86.7792 141.168 86.8298 141.3 86.8479 141.531C87.2703 141.346 87.64 141.207 87.9856 141.023C88.3372 140.838 88.6322 140.836 89.0121 141.009C89.3354 141.156 89.7456 141.134 90.1174 141.154C90.3154 141.164 90.5195 141.064 90.7134 141.086C90.9175 141.108 91.1115 141.215 91.3095 141.285C91.2408 141.457 91.2024 141.652 91.0954 141.798C90.4427 142.689 90.8064 143.83 91.8329 144.137C92.2168 144.252 92.6007 144.405 92.9402 144.613C93.0594 144.685 93.1423 145.03 93.0736 145.157C92.8028 145.649 92.9018 146.083 93.1382 146.539C93.2797 146.811 92.9644 148.106 92.7098 148.263C92.5927 148.336 92.4027 148.334 92.2592 148.305C91.3116 148.12 90.8731 148.578 91.0529 149.527C91.1095 149.826 91.065 150.165 90.9822 150.461C90.8872 150.792 90.6528 151.004 90.2447 150.929C90.1174 150.907 89.9678 151 89.8284 151.04C89.883 151.183 89.9052 151.35 89.9981 151.461C90.2184 151.724 90.5498 151.921 90.6912 152.214C90.8306 152.504 90.9276 152.958 90.7902 153.194C90.6771 153.385 90.0992 153.52 89.889 153.399C89.2161 153.01 88.612 153.198 87.9674 153.393C87.0864 153.659 87.0823 153.645 86.6459 152.815C86.4943 152.887 86.3428 152.968 86.1852 153.036C86.0195 153.107 85.775 153.268 85.6942 153.21C85.1647 152.835 84.7182 153.121 84.2413 153.307C84.1463 153.343 83.9705 153.268 83.8736 153.192C83.4331 152.847 83.0087 152.482 82.5359 152.091C82.3985 152.236 82.2692 152.355 82.158 152.492C81.8327 152.893 81.568 153.405 80.8951 153.091C80.8224 153.057 80.7032 153.133 80.6021 153.145C80.3799 153.167 80.1556 153.182 79.9333 153.2C79.9676 152.992 79.9676 152.77 80.0404 152.577C80.4283 151.562 80.1333 150.711 79.1958 150.203C77.9531 149.529 77.5934 148.065 78.3936 146.886C78.4865 146.749 78.6542 146.601 78.8078 146.573C79.5372 146.438 79.9252 145.996 80.1131 145.305C80.1556 145.147 80.3536 144.948 80.5072 144.923C80.9537 144.851 81.1558 144.571 81.3255 144.204C81.5377 143.746 81.7983 143.31 82.0105 142.852C82.0711 142.723 82.0348 142.548 82.0428 142.395C81.8974 142.387 81.7539 142.383 81.6084 142.372C81.3861 142.354 81.1639 142.332 80.9416 142.31C80.9881 142.072 81.0143 141.826 81.0891 141.596C81.1214 141.493 81.2326 141.388 81.3356 141.336C82.2873 140.848 82.548 139.987 82.6005 139.017C82.6106 138.843 82.6369 138.605 82.5419 138.503C82.1782 138.109 82.348 137.746 82.4793 137.329C82.5945 136.964 82.7016 136.76 83.1421 136.849C83.2573 136.871 83.522 136.639 83.5563 136.488C83.6755 135.966 83.722 135.425 83.8049 134.82C83.9988 134.804 84.2595 134.81 84.504 134.748C84.6353 134.713 84.7828 134.578 84.8334 134.451C84.8616 134.383 84.7283 134.211 84.6313 134.132C83.9018 133.548 83.8978 133.392 84.6212 132.755C84.7283 132.662 84.8354 132.57 84.9405 132.475C85.2395 132.203 85.5062 131.926 85.1769 131.497C84.8879 131.12 84.603 130.849 84.0554 131.089C83.2209 131.454 83.0148 131.333 82.744 130.466C82.5541 129.861 81.9014 129.52 81.2528 129.641C80.6385 129.756 80.0161 129.823 79.3978 129.916C79.0341 129.97 78.824 129.831 78.6057 129.518C78.3774 129.194 78.0379 128.893 77.6803 128.722C77.0822 128.436 76.4315 128.254 75.8011 128.038C75.3343 127.879 75.106 127.578 75.1807 127.072C75.209 126.873 75.211 126.669 75.2211 126.467C75.2696 125.534 74.4533 124.227 73.5541 123.965C73.2712 123.882 72.8812 124.067 72.568 124.199C72.1295 124.384 71.7214 124.636 71.295 124.852C70.9758 125.013 70.6626 125.215 70.3211 125.302C69.9937 125.384 69.6098 125.427 69.2966 125.334C68.7147 125.161 68.2418 125.183 67.6882 125.507C67.3426 125.711 66.791 125.693 66.3667 125.604C65.7968 125.485 65.2796 125.425 64.7057 125.61C64.0348 125.826 63.7661 125.526 63.9015 124.82C63.9358 124.64 63.9782 124.465 64.0207 124.287C64.3137 123.051 63.5398 122.345 62.2607 122.67C62.0122 122.732 61.7475 122.777 61.4929 122.763C61.0524 122.741 60.7735 122.488 60.7472 122.035C60.7008 121.198 60.2845 120.546 59.7531 119.943C59.5389 119.701 59.3328 119.451 59.1348 119.195C58.5488 118.435 58.5528 117.925 59.1408 117.177C59.8763 116.239 59.2863 114.531 58.1345 114.136C57.8436 114.037 57.6294 113.718 57.3182 113.448C56.9444 113.547 56.6635 113.869 56.6716 114.283C56.6979 115.571 55.9239 116.364 55.049 117.118C54.758 117.368 54.457 117.612 54.1902 117.889C53.8508 118.243 53.5113 118.26 53.2102 117.893C52.6525 117.209 51.9291 117.219 51.1613 117.33C50.5611 117.417 49.963 117.509 49.3589 117.554C49.1548 117.568 48.8416 117.505 48.7527 117.366C48.6092 117.14 48.5445 116.816 48.5809 116.55C48.593 116.463 49.0376 116.344 49.2477 116.392C49.5852 116.471 49.8923 116.677 50.3146 116.876C50.2964 116.61 50.2601 116.459 50.2783 116.314C50.3348 115.864 50.3288 115.382 50.5005 114.979C50.8844 114.085 50.7329 113.521 49.8095 112.897C48.9244 112.3 48.2637 112.371 47.6171 113.067C47.3483 113.357 46.9604 113.537 46.6775 113.817C46.0834 114.404 45.5176 115.019 44.9518 115.634C44.8629 115.729 44.8084 115.882 44.7962 116.015C44.7356 116.62 44.4224 116.886 43.794 116.808C43.5354 116.775 43.2706 116.723 43.0282 116.626C42.2846 116.328 41.5632 116.227 40.8176 116.636C40.4943 116.814 40.2174 116.602 40.1871 116.291C40.1467 115.886 40.1386 115.434 40.276 115.063C40.8216 113.587 40.7388 113.428 39.2233 113.631C38.7828 113.69 38.3585 113.914 37.9402 114.095C37.2915 114.376 36.655 114.682 36.0145 114.981C35.8205 115.071 35.6346 115.174 35.3881 115.301C35.8448 115.789 35.8205 116.219 35.5316 116.723C35.4204 116.917 35.5235 117.306 35.6488 117.544C35.9216 118.06 36.2933 118.522 36.5803 119.03C36.9319 119.649 36.6793 120.268 35.9862 120.343C35.3154 120.415 34.6223 120.349 33.9454 120.282C33.7675 120.266 33.5352 120.06 33.4604 119.885C33.2765 119.453 32.9653 119.336 32.545 119.345C31.9166 119.357 31.2882 119.387 30.6618 119.349C30.4921 119.338 30.2213 119.133 30.191 118.98C29.9788 117.866 29.0817 117.342 27.9764 117.848C27.1863 118.209 26.5033 118.284 25.7415 117.814C25.4283 117.62 24.9959 117.636 24.6403 117.497C24.3089 117.366 23.8502 117.229 23.7269 116.965C23.2218 115.888 22.0175 115.755 21.2537 115.029C20.7485 114.549 19.5583 115.146 19.3361 115.817C19.0976 116.541 18.7824 117.241 18.4813 117.945C18.4328 118.058 18.2995 118.189 18.1863 118.211C17.4165 118.364 16.6425 118.534 15.8626 118.602C15.5453 118.631 15.1473 118.489 14.8927 118.29C14.2905 117.82 13.7955 117.215 12.9104 117.261C12.7286 117.271 12.5043 117.029 12.3507 116.858C12.0072 116.477 11.7182 116.045 11.3646 115.674C11.1019 115.398 10.7968 115.178 11.3161 114.769C11.2575 114.728 11.1989 114.688 11.1423 114.648C10.7907 114.785 10.3826 114.847 10.0997 115.073C9.48339 115.565 8.86709 115.668 8.06085 115.694C6.76764 115.735 6.11699 115.013 5.41987 114.206C5.31681 114.087 5.28853 113.904 5.18345 113.785C4.76114 113.305 4.34084 112.821 3.88417 112.377C3.53864 112.04 3.13047 111.77 2.76272 111.455C2.24947 111.016 2.23533 110.413 2.78292 110.044C4.09028 109.165 5.40976 108.299 6.75349 107.477C7.48901 107.027 8.24877 107.261 8.9459 107.64C9.09138 107.719 9.13988 107.965 9.24091 108.13C9.46318 108.495 9.66929 108.874 9.91783 109.219C10.2533 109.685 10.6291 110.12 10.9787 110.576C11.0514 110.671 11.0595 110.82 11.1423 110.897C11.3666 111.105 11.6233 111.451 11.8496 111.437C12.086 111.423 12.383 111.095 12.5123 110.834C12.9205 110.014 12.967 109.967 13.9046 110.026C14.3168 110.052 14.733 110.03 15.1533 109.967C14.5572 109.727 13.9814 109.241 13.3145 109.665C12.7629 110.014 12.2719 110.455 11.7283 110.875C11.6859 110.828 11.5869 110.768 11.5929 110.717C11.6778 109.925 11.1727 109.511 10.6069 109.116C10.1421 108.792 9.56422 108.42 9.8168 107.773C10.0613 107.148 10.7827 107.221 11.3484 107.12C11.3687 107.116 11.3909 107.116 11.4091 107.124C12.7427 107.765 14.0177 107.081 15.3049 106.92C16.7375 106.741 18.0105 107.501 18.3641 108.915C18.3904 109.023 18.3439 109.219 18.2631 109.276C17.8226 109.582 17.3599 109.858 16.9113 110.272C17.471 110.227 18.0368 110.223 18.5864 110.125C19.0249 110.044 19.3138 110.125 19.5705 110.5C19.6917 110.675 19.9625 110.891 20.1322 110.865C20.8415 110.758 21.3951 111.101 21.9609 111.397C22.4256 111.641 22.8924 111.903 23.2945 112.234C23.5572 112.45 23.832 112.786 23.8805 113.103C24.0644 114.305 24.9211 114.95 25.792 115.602C25.9032 115.686 26.0567 115.717 26.1659 115.803C26.6831 116.215 27.1822 116.12 27.651 115.739C28.0612 115.404 28.4674 115.291 28.9927 115.503C29.2251 115.596 29.5424 115.487 29.8192 115.452C30.2557 115.396 30.6881 115.297 31.1266 115.265C31.7388 115.219 31.9308 114.952 31.8499 114.355C31.7024 113.272 31.0659 112.579 30.1526 112.085C29.8111 111.899 29.4817 111.77 29.0716 112.02C28.9139 112.117 28.5401 112.026 28.3603 111.891C27.7743 111.451 27.1277 111.343 26.4184 111.33C25.8789 111.322 25.3212 111.256 24.812 111.095C24.4827 110.99 24.2139 110.677 23.933 110.439C23.6481 110.199 23.3834 109.935 23.1066 109.683C22.9914 109.578 22.8682 109.481 22.751 109.376C22.4034 109.064 22.0498 108.757 21.7144 108.433C21.5527 108.275 21.286 108.055 21.3143 107.916C21.3567 107.715 21.5931 107.493 21.8013 107.398C22.5105 107.075 23.2258 106.751 23.9714 106.537C24.3614 106.426 24.9191 106.39 25.2263 106.587C26.085 107.14 26.8812 106.741 27.7036 106.706C27.7117 106.634 27.7177 106.563 27.7258 106.491C27.3702 106.454 27.0166 106.41 26.6609 106.382C26.2123 106.345 25.398 105.561 25.3738 105.131C25.3435 104.559 26.1457 104.129 26.861 104.347C26.9943 104.387 27.1176 104.466 27.2388 104.536C28.8432 105.45 30.5244 105.545 32.2561 104.98C32.9067 104.768 33.5392 104.506 34.1757 104.256C35.0042 103.929 35.2709 103.191 35.5215 102.429C35.0486 102.096 34.8001 102.119 34.5051 102.685C33.9696 103.714 32.8785 103.933 31.86 104.022C31.2377 104.077 30.5668 103.833 29.9526 103.619C29.2716 103.381 28.629 103.032 27.9764 102.719C27.8006 102.635 27.5904 102.536 27.4914 102.383C26.9135 101.477 26.0103 101.324 25.0545 101.302C23.7593 101.274 23.8361 101.247 23.2925 100.1C22.8944 99.2589 22.4964 98.5007 22.4297 97.5105C22.363 96.4961 20.9364 95.871 19.8715 96.2562C19.2552 96.48 18.6975 96.8591 18.1116 97.1657C17.8509 97.3028 17.5842 97.4298 17.2912 97.575L17.2871 97.567Z" fill="#1C76D0"/>
<path d="M26.4104 120.976C26.2972 120.701 26.2124 120.53 26.1558 120.353C26.1133 120.217 26.1012 120.074 26.077 119.933C26.2548 119.979 26.467 119.979 26.6023 120.082C26.8489 120.272 27.0287 120.55 27.2813 120.73C27.3924 120.81 27.6106 120.744 27.7804 120.744C27.7945 120.683 27.8087 120.623 27.8228 120.56C27.6551 120.437 27.4571 120.34 27.3278 120.185C27.2287 120.066 27.1419 119.848 27.1883 119.725C27.2247 119.629 27.4672 119.594 27.6228 119.556C27.7965 119.514 28.0229 119.558 28.1461 119.463C28.5664 119.141 28.9059 119.155 29.1867 119.584C29.3969 119.905 29.6151 120.228 29.7626 120.578C29.8313 120.742 29.8071 121.022 29.704 121.165C28.6957 122.597 27.5379 123.884 26.0325 124.823C25.4829 125.166 24.9757 125.58 24.4079 125.886C23.9755 126.118 23.4744 126.223 23.0116 126.402C22.6257 126.554 22.2155 126.681 21.876 126.909C21.4436 127.201 21.0799 127.594 20.6738 127.927C20.3403 128.201 20.0069 128.403 19.5119 128.274C19.2997 128.219 18.9926 128.425 18.7642 128.568C18.449 128.764 18.2065 128.794 17.8893 128.54C17.7175 128.403 17.4225 128.401 17.1801 128.375C16.5072 128.3 15.8242 128.278 15.1574 128.171C14.7189 128.1 14.533 127.756 14.5573 127.314C14.5775 126.931 14.5916 126.546 14.63 126.164C14.6643 125.824 14.5552 125.656 14.1935 125.582C13.3368 125.406 12.4881 125.186 11.6374 124.977C11.5222 124.948 11.3747 124.908 11.3141 124.823C10.5725 123.803 9.22476 124.103 8.31143 123.452C8.2104 123.38 7.95378 123.501 7.78 123.561C7.4567 123.676 7.14552 123.823 6.82019 123.938C6.38575 124.091 5.94323 124.216 5.51081 124.374C5.44009 124.4 5.38957 124.529 5.36533 124.62C5.33906 124.715 5.36735 124.823 5.34916 124.92C5.25419 125.428 5.75127 126.177 5.13699 126.415C4.159 126.792 3.07189 127.132 2.06359 126.386C1.5948 126.039 1.03912 125.737 0.725919 125.275C0.406657 124.805 0.352099 124.16 0.158117 123.599C-0.104567 122.847 -0.025762 122.17 0.333913 121.442C0.487483 121.131 0.273294 120.621 0.180344 120.211C0.0106097 119.475 0.101539 119.199 0.82089 118.949C1.46346 118.727 2.14846 118.634 2.7991 118.435C3.33458 118.271 3.88621 118.096 4.36511 117.814C4.95514 117.467 5.49667 117.445 6.09074 117.731C7.02024 118.179 7.9174 118.727 8.89136 119.036C10.0553 119.403 11.2454 119.612 12.1911 120.498C12.5043 120.79 13.0438 120.841 13.4823 120.996C13.555 121.022 13.6621 121.058 13.7126 121.026C14.6159 120.455 15.4241 121.099 16.2627 121.24C16.7153 121.317 17.0972 121.337 17.4508 121.024C18.1217 120.427 18.8249 119.911 19.7604 119.77C19.9787 119.737 20.1848 119.433 20.3363 119.213C20.4434 119.056 20.4414 118.828 20.502 118.634C20.6232 118.251 20.5545 117.735 21.1345 117.654C21.771 117.564 22.4681 117.618 22.7389 118.231C23.1753 119.221 23.8239 119.766 24.8848 120.006C25.398 120.123 25.8325 120.589 26.4144 120.97L26.4104 120.976Z" fill="#1C76D0"/>
<path d="M17.4307 98.736C17.2468 98.6977 17.0629 98.6231 16.881 98.6312C16.6446 98.6433 16.3718 98.6634 16.192 98.7905C16.0869 98.8631 16.0607 99.2825 16.1253 99.3188C16.3476 99.4439 16.6628 99.579 16.879 99.5104C17.564 99.2906 18.1884 99.2603 18.7582 99.7827C18.9239 99.5144 19.0007 99.0143 19.3644 99.6395C19.4493 99.7867 19.8413 99.8532 20.0636 99.8109C20.8112 99.6697 21.2456 99.9742 21.5487 100.634C21.7751 101.126 22.0701 101.592 22.3691 102.047C22.4661 102.197 22.654 102.314 22.8258 102.382C23.6239 102.705 24.4423 102.983 25.2344 103.322C25.7093 103.526 25.5072 104.003 25.3375 104.203C24.8384 104.79 24.4241 105.466 23.4825 105.572C22.8056 105.649 22.157 106.026 21.5063 106.296C21.0537 106.484 20.6879 106.421 20.3606 106.052C19.9888 105.633 19.522 105.433 18.9542 105.49C18.4127 105.546 18.1359 105.272 18.0106 104.764C17.9399 104.473 17.7944 104.201 17.6974 103.915C17.5175 103.384 17.174 103.088 16.5982 103.025C16.1172 102.973 15.7212 102.791 15.5535 102.249C15.4403 101.88 15.1595 102.009 14.917 102.172C14.4199 102.505 13.9289 102.852 13.4136 103.156C12.5387 103.673 11.3546 103.32 10.8939 102.428C10.4655 101.604 10.8656 100.283 11.7708 99.9521C12.8559 99.5568 13.941 99.0103 15.1716 99.3027C15.5373 99.3894 15.6181 99.1313 15.6767 98.857C15.802 98.2682 16.3233 98.2016 16.7598 98.1532C17.0003 98.127 17.2731 98.3851 17.5297 98.5142C17.4973 98.5868 17.463 98.6594 17.4307 98.734V98.736Z" fill="#1C76D0"/>
<path d="M52.9008 23.1355C52.8624 23.9421 52.824 24.7488 52.7815 25.5534C52.7755 25.6542 52.7775 25.7692 52.729 25.8478C52.2501 26.6101 51.9147 27.566 51.2398 28.0722C50.3022 28.776 49.4737 29.5423 48.6736 30.3873C48.3321 30.7462 47.7138 30.8894 47.1944 31.0124C46.9803 31.0628 46.6044 30.8733 46.4529 30.6756C46.0689 30.1795 46.0204 29.6008 46.1094 28.9575C46.4327 26.6222 47.6895 24.7488 49.0029 22.8975C49.5283 22.1574 50.0395 21.4032 50.6215 20.7095C51.0559 20.1912 51.3166 20.2618 51.7005 20.8325C52.0157 21.3023 52.3612 21.7541 52.6563 22.236C52.8179 22.5002 52.9048 22.8088 53.026 23.0971C52.9856 23.1092 52.9452 23.1193 52.9048 23.1314L52.9008 23.1355Z" fill="#1C76D0"/>
<path d="M75.8539 5.84686C75.6478 5.98802 75.4881 6.13725 75.3002 6.21993C74.5243 6.56478 73.7281 6.86122 72.9664 7.23228C72.6289 7.39764 72.3662 7.71022 72.0571 7.94012C71.9217 8.04095 71.7641 8.15186 71.6044 8.17001C71.265 8.21034 70.9053 8.13775 70.5759 8.21034C69.9172 8.35554 69.1857 8.43016 68.6422 8.77903C67.6642 9.40621 66.6235 9.63005 65.5122 9.85188C64.6696 10.0213 63.8775 10.5859 63.142 11.0901C62.5277 11.5116 62.1599 11.6346 61.7679 11.2313C61.3133 10.7634 61.3638 10.1987 61.8972 9.71878C62.0933 9.54334 62.3418 9.39612 62.4671 9.17833C62.9541 8.34143 63.7401 8.31723 64.5908 8.13976C66.959 7.64569 69.2908 6.9681 71.6327 6.34093C72.5703 6.09087 73.4877 5.76821 74.4212 5.50806C74.9062 5.37295 75.4093 5.3064 75.8518 5.84484L75.8539 5.84686Z" fill="#1C76D0"/>
<path d="M89.4037 5.02332C89.2158 5.11407 89.0137 5.30565 88.844 5.27943C87.5184 5.07575 86.3565 5.73317 85.128 5.99533C83.9944 6.23733 82.9113 6.26758 81.7818 6.08608C81.4403 6.03163 80.9897 6.18893 80.6947 6.39664C79.8137 7.01575 78.9084 7.11254 77.9466 6.68099C77.3768 6.42487 77.1545 5.93887 77.2596 5.33993C77.3606 4.76519 77.694 4.46068 78.2396 4.65226C80.6987 5.51336 83.168 4.91039 85.6311 4.76519C86.498 4.71477 87.3608 4.57361 88.2277 4.53933C88.6156 4.52319 89.0117 4.66839 89.4037 4.73897C89.4037 4.83375 89.4037 4.92854 89.4037 5.02533V5.02332Z" fill="#1C76D0"/>
<path d="M95.0315 5.4028C94.4556 4.35415 94.8557 3.17644 95.9711 2.96873C97.6745 2.6501 99.4103 2.50491 101.138 2.32744C101.388 2.30123 101.663 2.51096 101.928 2.61179C101.702 2.78522 101.498 3.001 101.247 3.12603C100.548 3.4749 99.8467 3.83386 99.1132 4.09603C98.6505 4.26139 98.1251 4.32794 97.6301 4.32189C96.6945 4.30777 95.8519 4.4328 95.272 5.26769C95.2316 5.32415 95.1386 5.34432 95.0315 5.40078V5.4028Z" fill="#1C76D0"/>
<path d="M58.64 13.4634C58.7208 13.4694 58.8117 13.4553 58.8804 13.4876C59.0845 13.5844 59.2805 13.7014 59.4805 13.8103C59.2926 13.9131 59.1108 14.0321 58.9127 14.1127C58.747 14.1813 58.551 14.1773 58.3914 14.2539C57.5084 14.6875 56.6375 15.1513 55.7484 15.5728C55.3423 15.7664 55.0674 15.9237 55.4372 16.4117C55.512 16.5105 55.4009 16.8614 55.2715 16.9804C54.6956 17.5027 54.0895 17.9907 53.4772 18.4687C53.3438 18.5715 53.1438 18.6421 52.9761 18.636C52.5336 18.6239 52.091 18.5776 51.6546 18.509C51.497 18.4828 51.3575 18.3497 51.208 18.267C51.3111 18.1319 51.3878 17.9121 51.5192 17.8717C53.6712 17.1962 54.7522 15.0041 56.787 14.1692C57.3973 13.9191 57.9893 13.6267 58.5894 13.3545C58.6056 13.3908 58.6238 13.4271 58.64 13.4634Z" fill="#1C76D0"/>
<path d="M33.8761 99.8293C33.1891 100.527 31.6049 99.9563 31.0674 98.8189C31.5402 98.6758 33.3487 99.3271 33.8761 99.8293Z" fill="#1C76D0"/>
<path d="M107.82 0.964228C107.412 0.921879 107.099 0.899696 106.79 0.85533C106.481 0.810964 106.172 0.756515 105.866 0.68795C105.731 0.6577 105.608 0.577035 105.48 0.518553C105.567 0.353189 105.612 0.115227 105.749 0.0345621C106.062 -0.148951 107.529 0.456037 107.822 0.964228H107.82Z" fill="#1C76D0"/>
<path d="M20.4048 97.4917C19.9078 97.538 19.4107 97.5824 18.9116 97.6288C18.8772 97.5945 18.8449 97.5602 18.8105 97.528C19.047 97.29 19.2814 96.8625 19.5218 96.8584C19.8411 96.8544 20.1644 97.1811 20.4857 97.3666C20.4594 97.409 20.4311 97.4513 20.4048 97.4937V97.4917Z" fill="#1C76D0"/>
<path d="M22.1228 100.112C21.8581 99.7024 21.5833 99.2991 21.3408 98.8776C21.2944 98.7969 21.3792 98.6396 21.4035 98.5166C21.5287 98.5509 21.7328 98.5469 21.7692 98.6235C21.9834 99.0752 22.1592 99.5451 22.3491 100.007C22.2744 100.041 22.1996 100.077 22.1248 100.112H22.1228Z" fill="#1C76D0"/>
<path d="M60.9568 59.7791C60.5688 59.9949 60.3567 60.1441 60.1202 60.2369C59.9525 60.3034 59.7545 60.2974 59.5706 60.3216C59.5767 60.1764 59.5302 59.9908 59.603 59.8961C59.7161 59.7509 59.906 59.5956 60.0738 59.5815C60.296 59.5613 60.5304 59.6742 60.9548 59.7771L60.9568 59.7791Z" fill="#1C76D0"/>
<path d="M111.425 0.365231C110.882 0.405564 110.894 1.2344 110.292 0.818973C110.197 0.752424 110.108 0.488246 110.154 0.435813C110.459 0.0929867 110.839 0.0566874 111.425 0.363215V0.365231Z" fill="#1C76D0"/>
<path d="M10.8673 105.928C11.136 105.601 11.3906 105.261 11.6816 104.956C11.7624 104.871 11.9544 104.89 12.0958 104.861C12.0534 105.019 12.0594 105.23 11.9584 105.319C11.6634 105.581 11.3239 105.797 11.0026 106.029C10.9562 105.995 10.9117 105.96 10.8652 105.928H10.8673Z" fill="#1C76D0"/>
<path d="M92.6997 5.31618C92.5118 5.48961 92.3259 5.66102 92.138 5.83445C92.0774 5.81025 92.0147 5.78605 91.9541 5.76185C91.9763 5.55414 91.9278 5.28391 92.041 5.15485C92.1339 5.04998 92.4168 5.1125 92.6169 5.1004C92.6452 5.173 92.6735 5.24358 92.6997 5.31618Z" fill="#1C76D0"/>
<path d="M92.1395 5.83165C92.1213 5.82358 92.1031 5.81753 92.085 5.80946C92.1759 5.52512 92.3497 5.29119 92.5841 5.10163C92.5962 5.10163 92.6063 5.10163 92.6164 5.09961C92.6447 5.17019 92.673 5.24279 92.7013 5.31337C92.5133 5.4868 92.3274 5.66023 92.1395 5.83165Z" fill="#1C76D0"/>
<path d="M95.0331 5.40041C94.8392 5.04952 94.7563 4.68249 94.7725 4.3437C95.8555 4.20455 97.0861 4.23681 98.1288 4.30135C97.9631 4.31748 97.7954 4.32353 97.6317 4.32151C96.6961 4.3074 95.8535 4.43243 95.2736 5.26731C95.2352 5.32378 95.1402 5.34394 95.0331 5.40041Z" fill="#1C76D0"/>
<path d="M131.795 25.0025C131.94 26.5472 132.1 28.1 132.096 29.6488C132.094 30.4957 131.799 31.3468 131.591 32.1857C131.312 33.2908 130.851 34.3031 130.111 35.2046C129.412 36.0576 128.822 36.9994 128.186 37.9028C128.161 37.9371 128.131 37.9714 128.127 38.0097C127.986 39.3871 127.056 40.5365 127.042 41.9704C127.02 44.2532 126.891 46.532 126.802 48.8128C126.796 48.9923 126.761 49.1738 126.717 49.3492C126.377 50.7024 125.89 50.8818 124.704 50.1659C124.474 50.0268 124.112 50.0207 123.829 50.0651C123.007 50.1962 122.186 50.5511 121.503 49.692C121.374 49.5287 120.988 49.5307 120.719 49.5226C119.636 49.4924 118.551 49.4601 117.47 49.4924C117.145 49.5025 116.807 49.6013 116.498 49.7384C116.082 48.7906 115.652 47.8004 115.47 47.3447C115.066 46.3364 110.822 43.7147 110.822 43.7147C110.822 43.7147 109.61 44.3197 107.791 45.1264C105.973 45.933 105.367 44.3197 105.164 43.1098C104.962 41.8998 104.76 40.8915 103.952 38.6732C103.144 36.4549 101.527 33.0266 101.527 33.0266H99.3046C99.3046 33.0266 95.6674 27.5817 95.6674 25.7668C95.6674 23.9518 95.4654 23.5485 95.6674 22.3385C95.8695 21.1285 99.3046 20.7252 99.3046 20.7252L92.0303 13.4653C92.0303 13.4653 92.3192 10.5755 92.1636 7.97606C92.7335 7.90346 93.3053 7.85708 93.8812 7.82078C94.5318 7.78246 95.1926 7.93774 95.8412 8.00227C95.9746 8.89766 96.1201 9.85152 96.2413 10.6602C97.0092 10.8639 97.6739 11.0393 98.3852 11.2289C98.4317 11.1563 98.5711 10.9425 98.6883 10.761C98.0902 10.3335 97.486 9.90194 96.8818 9.47038C96.9263 9.45021 96.9687 9.43206 97.0112 9.4119C96.9202 9.17393 96.8051 8.94001 96.7424 8.69398C96.706 8.54475 96.6858 8.30477 96.7707 8.22612C97.7952 7.27629 99.5693 7.22386 100.654 8.16965C101.081 8.54071 101.394 8.52458 101.83 8.2725C103.506 7.3025 105.381 7.04034 107.254 6.93548C108.822 6.84675 110.261 6.41519 111.701 5.86465C112.827 5.43511 113.966 4.99346 115.14 4.74744C115.836 4.60224 116.607 4.82608 117.345 4.88053C117.6 4.9007 117.866 4.95918 118.111 4.91482C118.774 4.7918 118.854 4.8644 118.695 5.53997C118.683 5.5924 118.705 5.65089 118.733 5.90498C118.994 5.65089 119.162 5.48754 119.351 5.30201C120.281 5.43712 120.663 5.9917 120.568 6.95766C120.529 7.34687 120.685 7.75826 120.766 8.15755C120.867 8.66776 121.006 9.17393 121.087 9.68616C121.311 11.1099 122.277 11.8661 123.496 12.4066C123.698 12.4973 123.916 12.5679 124.096 12.6909C125.232 13.4714 126.438 13.9412 127.786 13.5581C127.784 14.2397 127.721 14.8971 127.814 15.5303C127.854 15.8006 128.178 16.1515 128.446 16.2422C129.42 16.5669 130.419 16.8412 131.427 17.0428C131.853 17.1295 131.985 17.2888 132.061 17.6821C132.304 18.9001 132.366 20.0476 131.647 21.185C131.322 21.7032 131.283 22.4131 131.176 23.0463C131.142 23.252 131.308 23.49 131.382 23.7138C131.526 24.1413 131.752 24.5628 131.795 25.0025Z" fill="#1C76D0"/>
</g>
<defs>
<clipPath id="clip0_2903_823">
<rect width="132.227" height="153.554" fill="white"/>
</clipPath>
</defs>
</svg>
