<svg width="155" height="154" viewBox="0 0 155 154" fill="none" xmlns="http://www.w3.org/2000/svg">
<g clip-path="url(#clip0_369_121)">
<path d="M132.573 45.6779C132.068 46.0816 131.686 46.4277 131.272 46.7046C130.942 46.9256 130.943 47.1318 131.19 47.4073C131.331 47.5649 131.489 47.6989 131.628 47.8595C131.944 48.2277 131.918 48.5326 131.49 48.6402C130.627 48.8582 129.751 49.0158 128.873 49.1351C127.497 49.3222 126.116 49.4385 124.74 49.6286C124.48 49.6639 124.239 49.8996 123.989 50.0425C124.185 50.2723 124.363 50.5271 124.58 50.7245C124.81 50.9322 125.079 51.0751 125.325 51.2577C126.36 52.031 126.629 53.068 126.051 54.3466C125.339 55.9198 124.353 57.1453 122.792 57.49C121.796 57.7095 120.791 57.873 119.797 58.1013C118.43 58.4151 117.214 59.1825 116.054 60.0428C115.2 60.6747 114.87 61.7809 114.745 62.8842C114.481 65.213 114.316 67.5566 114.125 69.8972C114.108 70.1123 114.209 70.3391 114.246 70.5615C114.33 71.0653 114.459 71.5691 114.475 72.0773C114.499 72.8698 114.157 73.3485 113.532 73.6254C113.157 73.7918 112.774 73.9657 112.438 74.2176C111.663 74.8009 111.649 75.5079 112.361 76.1737C112.422 76.2312 112.475 76.3004 112.608 76.4506C112.385 76.595 112.202 76.7158 112.019 76.8321C111.197 77.3492 110.35 77.8147 109.559 78.3921C108.802 78.9459 108.702 79.4173 108.921 80.4454C109.019 80.908 109.123 81.372 109.19 81.8419C109.341 82.8892 109.022 83.4666 108.151 83.7627C107.192 84.0897 106.232 84.4182 105.268 84.726C104.83 84.866 104.569 85.1385 104.42 85.6805C104.095 86.8619 103.693 88.0138 103.349 89.1878C103.29 89.3896 103.312 89.6739 103.388 89.8713C103.612 90.4575 103.581 90.8258 103.176 91.2411C103.031 91.3899 102.866 91.521 102.695 91.6197C101.727 92.1706 101.045 93.0648 100.708 94.2402C100.486 95.0135 100.057 95.4849 99.5443 95.9136C98.4516 96.8283 97.3565 97.7371 96.2514 98.6298C95.4514 99.275 94.8474 100.094 94.8189 101.277C94.7817 102.844 94.0995 103.946 93.1383 104.856C92.7948 105.182 92.6893 105.406 92.894 105.921C93.2586 106.843 92.9672 107.562 92.1114 107.783C90.8872 108.098 89.6482 108.405 88.403 108.523C86.9605 108.66 85.7029 109.213 84.6152 110.312C84.2989 110.632 83.9851 110.723 83.6478 110.495C83.076 110.109 82.5328 109.664 81.9685 109.262C81.7973 109.14 81.6001 109.01 81.4091 108.995C80.2991 108.91 79.1878 108.844 78.0765 108.808C77.9128 108.802 77.6474 108.939 77.5953 109.09C76.9689 110.887 75.8912 112.226 74.605 113.363C74.1523 113.762 73.7108 114.185 73.2382 114.547C71.6197 115.79 71.1112 120.367 72.9852 121.993C73.9849 122.859 75.0552 123.363 76.3215 123.088C77.4464 122.843 78.1137 123.711 77.7987 125.014C77.4973 126.263 77.1463 127.495 76.8338 128.741C76.5634 129.818 76.6353 130.811 77.3485 131.665C77.6176 131.988 77.7925 132.418 78.0368 132.771C78.4374 133.35 78.8343 133.453 79.411 133.159C79.6913 133.014 79.958 132.827 80.2445 132.704C80.9056 132.416 81.3124 132.628 81.419 133.44C81.5245 134.244 81.517 135.077 81.5034 135.896C81.4959 136.343 81.5629 136.691 81.8246 137.036C82.7349 138.232 83.4332 139.552 83.6056 141.212C83.7247 142.349 84.2915 143.253 84.9215 144.103C84.8062 144.264 84.7256 144.411 84.6177 144.519C84.2047 144.924 84.1464 145.404 84.2729 146.006C84.3473 146.361 84.4862 146.448 84.7467 146.522C84.9637 146.582 85.3097 146.741 85.3259 146.896C85.3507 147.135 85.1944 147.487 85.022 147.652C84.32 148.323 83.6056 148.983 82.8515 149.568C81.9486 150.268 81.1995 149.804 81.0829 148.534C81.0184 147.833 80.9564 147.783 80.3611 147.859C79.6889 147.946 79.0154 148.021 78.3419 148.091C77.3621 148.192 77.0756 148.44 76.7965 149.521C76.6998 149.896 76.5051 150.095 76.1963 150.026C75.4236 149.852 74.6124 149.767 73.8993 149.412C72.8066 148.867 71.7238 148.83 70.5915 149.019C69.8411 149.144 69.087 149.234 68.333 149.306C68.0837 149.329 67.8257 149.257 67.5739 149.212C67.1783 149.141 66.7851 149.005 66.3882 148.989C65.7445 148.963 65.4766 149.301 65.4642 150.063C65.458 150.465 65.4766 150.867 65.4717 151.268C65.4655 151.736 65.2546 152.035 64.8689 152.097C64.4398 152.166 63.9933 152.122 63.5741 152.234C63.068 152.368 62.5843 152.616 62.0907 152.813C61.7161 152.962 61.3478 153.161 60.9633 153.248C60.3022 153.395 59.63 153.547 58.9615 153.555C58.2285 153.566 57.493 153.418 56.76 153.336C56.6 153.318 56.4413 153.279 56.2813 153.259C55.2419 153.134 54.7657 152.679 54.5734 151.455C54.3998 150.349 54.3551 149.212 54.1641 148.11C54.06 147.51 53.7759 146.953 53.5663 146.38C53.3493 145.785 53.0913 145.208 52.9102 144.6C52.5654 143.437 51.9713 142.677 50.8948 142.496C50.1953 142.378 49.5032 142.187 48.8136 141.994C48.4031 141.877 48.1054 141.639 48.0533 141.035C48.0273 140.736 47.7755 140.449 47.5957 140.186C46.9793 139.288 46.9433 138.769 47.458 137.805C48.2766 136.271 47.995 135.037 46.6345 134.212C46.2612 133.985 45.8804 133.78 45.5021 133.564C44.8857 133.212 44.3363 133.353 43.8699 133.919C43.566 134.287 43.287 134.685 43.0054 135.078C42.5403 135.725 42.0467 136.332 41.3385 136.588C41.0843 136.681 40.8065 136.682 40.5088 136.729C40.5013 136.769 40.4815 136.84 40.4741 136.91C40.3897 137.843 39.9705 138.235 39.1904 138.049C38.7501 137.944 38.3135 137.791 37.8881 137.617C36.8909 137.208 35.9508 137.14 35.0603 137.996C34.6795 138.361 34.1884 138.285 33.7704 138.031C33.4306 137.825 33.0511 137.594 32.8328 137.246C32.3863 136.532 31.8269 136.541 31.2341 136.748C30.6028 136.969 29.9839 137.254 29.3761 137.554C28.7647 137.858 28.188 137.85 27.6199 137.438C27.0841 137.049 26.5372 136.681 26.0175 136.264C25.6888 136 25.4333 135.959 25.22 136.405C24.9149 137.046 24.4572 137.106 23.8917 136.999C23.1153 136.852 22.3277 136.722 21.5451 136.719C20.5851 136.715 20.2552 137.162 20.2589 138.302C20.2602 138.722 20.063 138.74 19.8286 138.71C19.1563 138.625 18.4829 138.547 17.8156 138.416C16.2702 138.111 14.7459 138.179 13.2068 138.534C12.3448 138.731 11.4431 138.685 10.5613 138.772C10.2264 138.806 9.89649 138.9 9.56534 138.979C9.1945 139.067 8.94397 139.295 8.94893 139.789C8.95265 140.133 8.77529 140.176 8.56321 140.091C7.77192 139.774 6.96822 139.487 6.20298 139.098C5.66346 138.824 5.35959 138.239 5.38564 137.528C5.43277 136.249 5.4923 134.968 5.62749 133.699C5.67462 133.26 5.96733 132.86 6.14344 132.44C6.28607 132.103 6.46715 131.777 6.55521 131.419C6.8566 130.191 7.08605 128.934 7.4234 127.72C7.57967 127.158 7.8885 126.639 8.18989 126.156C8.38585 125.844 8.67359 125.786 8.9787 126.107C9.20194 126.342 9.48349 126.529 9.76627 126.648C10.1557 126.814 10.3852 126.595 10.4186 126.103C10.4236 126.026 10.4211 125.95 10.4162 125.873C10.3107 124.306 10.5687 123.724 11.7842 123.11C13.2911 122.348 14.8638 122.188 16.4749 122.557C16.8842 122.652 17.3009 122.74 17.7164 122.761C18.1753 122.784 18.3601 122.534 18.3464 121.983C18.3365 121.582 18.2881 121.183 18.2646 120.782C18.1827 119.374 18.5412 118.143 19.325 117.084C19.3883 116.997 19.4565 116.914 19.5123 116.82C19.7852 116.362 19.7157 116.03 19.2593 115.941C18.7756 115.845 18.2658 115.799 17.7809 115.867C17.2587 115.941 16.7539 116.184 16.2367 116.328C15.3797 116.568 14.9804 116.175 15.1131 115.135C15.2135 114.347 15.4219 113.578 15.5918 112.803C15.8957 111.411 15.7902 110.102 15.2036 108.808C14.5748 107.421 14.7162 105.917 14.9419 104.431C14.9754 104.214 15.0114 103.997 15.0597 103.697C14.679 103.865 14.3875 104.012 14.0861 104.124C13.6992 104.267 13.3283 104.239 12.9848 103.936C11.7023 102.8 10.2562 101.997 8.71576 101.619C7.08605 101.219 6.03678 100.144 5.3075 98.4795C5.07681 97.9537 4.84364 97.4278 4.639 96.8887C4.30785 96.0152 3.74973 95.5055 2.96464 95.3288C2.27877 95.1741 2.15226 94.8721 2.47349 94.1356C2.56155 93.9324 2.64465 93.7026 2.7848 93.5582C3.25858 93.0706 3.17796 92.5845 2.82697 92.0837C2.26265 91.2795 1.66856 90.5017 1.13028 89.6724C0.743317 89.0773 0.321626 88.4645 0.105819 87.7752C-0.232774 86.694 0.263333 86.0635 1.17617 86.4038C2.70914 86.9753 4.21111 87.6632 5.72547 88.3069C6.81071 88.768 7.73595 89.5693 8.72568 90.2395C10.1507 91.2043 11.7594 91.3148 13.3705 91.3045C15.1726 91.2927 16.9127 90.7934 18.6739 90.4266C20.9138 89.9611 23.1351 90.0127 25.2597 91.1704C25.4023 91.2485 25.6479 91.2367 25.7818 91.1395C28.1198 89.4485 30.604 89.1289 33.2284 89.9346C33.479 90.0112 33.7741 90.0009 34.0271 89.9258C37.1836 88.9933 40.3414 88.0668 43.4842 87.074C44.0882 86.8825 44.6699 86.4789 45.1883 86.0473C45.7179 85.6054 45.6683 85.0589 45.171 84.5772C44.3623 83.7951 44.1378 83.2206 44.562 82.0864C45.1722 80.4528 45.3012 78.7957 45.1883 77.0502C45.1474 76.4153 45.2379 75.748 45.3706 75.1264C45.4612 74.7022 45.7006 74.3059 45.9263 73.9436C46.3827 73.21 46.9135 72.5383 47.3402 71.7827C47.7606 71.0373 48.1898 70.3421 48.9104 69.9797C49.027 69.9208 49.151 69.8412 49.2341 69.7322C49.8927 68.872 50.6889 68.9692 51.5137 69.2506C52.5195 69.5938 53.5155 69.9841 54.5313 70.2831C55.7504 70.6426 56.3954 70.2154 56.76 68.9162C56.925 68.3255 56.7885 68.0442 56.2652 67.9587C55.9675 67.9101 55.6636 67.9101 55.2283 67.8777C55.4354 67.6126 55.5458 67.4078 55.7008 67.2841C56.1275 66.9423 56.5566 66.5903 57.0168 66.3237C58.0945 65.6991 58.9789 64.805 59.7503 63.7312C59.9674 63.4292 60.2154 63.1596 60.456 62.868C60.7177 63.223 60.931 63.5603 61.1853 63.8475C61.5909 64.3042 61.8898 64.2629 62.3226 63.8372C62.5781 63.5854 62.8683 63.3541 63.1759 63.2083C64.0057 62.812 64.2884 62.9608 64.7796 63.8269C65.0475 64.2983 65.3526 64.7564 65.6986 65.1467C66.1017 65.6019 66.4515 65.6284 66.862 65.1806C67.6198 64.3543 68.3156 63.4498 69.056 62.6014C69.1801 62.4585 69.4095 62.3451 69.5732 62.3701C70.5803 62.5248 70.9276 62.0475 70.5196 60.9192C69.9242 59.2694 69.7258 57.5401 69.6452 55.774C69.6253 55.3468 69.6836 55.0507 70.078 54.9064C70.3 54.8253 70.5059 54.6383 70.6907 54.4571C71.136 54.0181 71.2178 53.5335 70.9623 52.9237C70.8557 52.6674 70.7192 52.4273 70.6026 52.1769C70.3447 51.626 70.3806 51.3166 70.8966 51.1855C71.6283 50.9999 71.6767 50.5551 71.6271 49.7906C71.5527 48.674 72.0042 48.2042 72.9443 48.1364C74.4574 48.0274 75.9023 47.5929 77.253 46.765C78.2836 46.1346 78.518 45.4393 78.0294 44.1858C77.7553 43.4832 77.5469 42.8174 77.5692 42.0175C77.5916 41.2118 77.0756 40.6285 76.3798 40.5592C76.0834 40.5298 75.9618 40.4016 75.8874 40.0805C75.6233 38.9419 75.338 37.8106 75.0304 36.5526C77.6238 37.1595 80.1391 37.871 82.766 37.3039C82.7176 37.1919 82.6655 37.0623 82.6072 36.94C82.3269 36.3567 82.4174 36.0106 82.9656 35.8161C83.3005 35.6968 83.6627 35.6909 84.0099 35.6217C84.3733 35.5495 84.7516 35.5201 85.0939 35.3713C85.7823 35.0723 86.0155 34.3947 85.6868 33.6154C85.4722 33.1073 85.1894 32.6315 84.8943 32.1807C84.3461 31.3441 84.315 31.1113 84.7553 30.173C85.44 28.7147 86.3702 27.4921 87.4442 26.4419C88.2393 25.6641 88.904 24.8098 89.3704 23.705C89.8479 22.5752 89.8863 22.5988 89.1967 21.6192C89.0219 21.3703 88.852 21.1184 88.6659 20.8489C88.9785 20.4099 89.3009 20.0107 89.5713 19.5659C90.1021 18.6909 90.0439 18.3433 89.4584 17.5213C89.3034 17.3033 89.224 16.8629 89.2935 16.5904C89.6036 15.3781 89.668 14.78 88.2975 13.7607C87.7382 13.3453 87.1838 12.9167 86.6629 12.438C86.2722 12.08 86.2598 11.7073 86.6095 11.3199C87.8052 9.99128 89.0194 8.68766 90.2535 7.34427C90.4817 7.5505 90.7558 7.79944 91.1117 8.12203C91.0807 7.66245 91.041 7.33102 91.0398 6.99959C91.0398 6.18207 91.2928 5.7873 91.9675 5.64442C92.44 5.54425 92.9299 5.55457 93.4062 5.47208C94.0003 5.37044 94.2285 5.07878 94.2298 4.36437C94.2298 3.79873 94.1516 3.2331 94.1045 2.61591C94.1615 2.60854 94.2632 2.58497 94.3649 2.58203C96.0207 2.52163 97.6827 2.5452 99.331 2.38759C101.577 2.17253 103.815 1.82048 106.056 1.52293C106.696 1.43897 107.334 1.33291 107.976 1.26221C108.112 1.24748 108.324 1.29167 108.386 1.40067C108.865 2.23734 109.531 2.24913 110.238 2.01492C110.607 1.89266 110.967 1.70558 111.308 1.49642C112.505 0.758438 113.748 0.136827 115.095 0.0234049C115.88 -0.0428807 116.691 0.136827 117.477 0.297385C118.269 0.457943 119.043 0.733397 119.825 0.955821C120.345 1.1046 120.656 1.5082 120.822 2.09299C120.843 2.16516 120.865 2.23734 120.884 2.31099C121.304 3.87533 121.364 3.92541 122.726 3.81052C124.658 3.64701 125.618 4.31134 126.303 6.46341C126.576 7.32365 126.694 8.26491 126.803 9.18259C126.866 9.72024 126.638 10.1592 126.175 10.417C125.679 10.6924 125.543 11.6897 125.919 12.2141C126.07 12.4247 126.28 12.6073 126.494 12.7149C127.036 12.9859 127.321 13.4661 127.452 14.1245C127.624 15.0039 127.842 15.1571 128.58 14.8994C129.383 14.618 130.178 14.3101 131.007 14.0023C131.174 14.3676 131.327 14.7417 131.507 15.0953C132.127 16.3149 132.998 16.9763 134.226 17.2017C135.244 17.3887 136.281 17.7879 137.19 18.3595C138.222 19.0091 139.269 19.1947 140.388 19.1947C141.307 19.1947 142.226 19.23 143.145 19.2197C143.473 19.2168 143.659 19.3596 143.618 19.7411C143.537 20.5115 143.455 21.2878 143.3 22.042C143.197 22.5428 143.236 22.8993 143.623 23.1644C144.175 23.543 144.18 24.2176 144.299 24.854C144.557 26.2298 144.786 27.6247 145.177 28.9489C145.629 30.475 146.627 31.2557 148.02 31.1835C148.846 31.1408 149.575 31.3868 150.229 31.9951C150.368 32.1248 150.579 32.1542 150.762 32.2043C150.981 32.2647 151.214 32.2647 151.425 32.3472C151.864 32.521 151.968 32.8524 151.665 33.2531C151.38 33.6302 151.045 33.9852 150.677 34.24C149.577 35.0016 149.349 35.7115 149.475 37.2273C149.613 38.8785 149.579 40.5504 149.635 42.2119C149.644 42.4668 149.675 42.7629 149.79 42.9617C150.53 44.2447 151.339 45.457 152.46 46.3202C152.587 46.4174 152.679 46.6383 152.718 46.821C153.108 48.6343 153.456 50.4608 153.875 52.2638C154.049 53.0121 154.365 53.7132 154.627 54.4645C154.291 54.572 153.952 54.6604 153.625 54.79C153.206 54.955 152.939 55.3041 152.924 55.8447C152.897 56.8257 152.23 57.0879 151.581 56.7771C151.216 56.6018 150.87 56.1849 150.667 55.771C150.413 55.2525 150.326 54.6221 150.144 54.0505C149.833 53.0769 149.455 52.8058 148.656 53.1918C147.904 53.5571 147.212 54.0977 146.487 54.5499C146.326 54.6501 146.145 54.706 145.974 54.7812C145.93 54.5528 145.824 54.3098 145.857 54.0977C145.951 53.4982 146.124 52.9163 146.222 52.3168C146.265 52.0561 146.204 51.7703 146.191 51.4963C145.97 51.5715 145.713 51.5847 145.537 51.7335C145.065 52.1297 144.627 52.5864 144.174 53.015C143.45 53.7 143.176 53.6617 142.665 52.7528C142.316 52.1342 142.038 51.4551 141.665 50.8585C140.992 49.7803 140.327 49.524 139.464 49.9703C139.284 50.0631 139.111 50.2826 139.02 50.4947C138.788 51.0279 138.511 51.2739 138.052 51.0235C137.402 50.6685 136.735 50.2708 136.2 49.7199C135.082 48.5665 134.047 47.3012 132.974 46.086C132.816 45.9048 132.638 45.7472 132.576 45.6853L132.573 45.6779Z" fill="#17958C"/>
<path d="M71.4805 99.4326C71.4482 99.3589 71.4557 99.3898 71.4805 99.4326V99.4326Z" fill="#17958C"/>
<path d="M76.3671 80.4265C75.0028 82.0468 76.3671 79.8373 76.3671 80.4265V80.4265Z" fill="#17958C"/>
<path d="M114.124 69.899C114.106 70.1141 114.208 70.3409 114.245 70.5634C114.328 71.0671 114.457 71.5709 114.473 72.0791C114.498 72.8716 114.156 73.3503 113.531 73.6272C113.156 73.7937 112.773 73.9675 112.437 74.2194C111.662 74.8027 111.648 75.5112 112.36 76.1755C112.422 76.233 112.474 76.3037 112.607 76.4525C112.385 76.5968 112.202 76.7176 112.018 76.834C111.195 77.351 110.348 77.8165 109.558 78.3954C108.8 78.9492 108.701 79.4206 108.919 80.4473C109.017 80.9113 109.12 81.3738 109.189 81.8437C109.34 82.891 109.021 83.4684 108.149 83.766C107.189 84.0915 106.23 84.42 105.267 84.7293C104.829 84.8693 104.567 85.1418 104.418 85.6824C104.093 86.8637 103.692 88.0156 103.348 89.1896C103.289 89.3914 103.311 89.6772 103.387 89.8731C103.611 90.4593 103.579 90.8276 103.174 91.243C103.029 91.3918 102.864 91.5243 102.692 91.6215C101.725 92.1725 101.042 93.0666 100.705 94.242C100.483 95.0154 100.054 95.4867 99.5417 95.9154C98.449 96.8301 97.3539 97.739 96.2488 98.6316C95.4488 99.2768 94.8436 100.096 94.8163 101.279C94.7791 102.844 94.0969 103.946 93.1357 104.858C92.7922 105.182 92.6867 105.406 92.8914 105.923C93.256 106.845 92.9633 107.564 92.1088 107.785C90.8846 108.1 89.6456 108.407 88.4004 108.524C86.9579 108.661 85.7003 109.215 84.6126 110.314C84.2963 110.635 83.9838 110.725 83.6452 110.497C83.0747 110.111 82.5302 109.666 81.9659 109.264C81.7947 109.142 81.5975 109.012 81.4065 108.997C80.2965 108.91 79.1852 108.845 78.0739 108.809C77.9102 108.804 77.6448 108.94 77.5914 109.091C76.9663 110.889 75.8886 112.228 74.6012 113.365C74.1485 113.764 73.7069 114.187 73.2344 114.549C73.0397 114.698 72.8623 114.895 72.7011 115.129L71.2822 112.096H68.4296C68.4296 112.096 68.1815 111.507 68.4296 109.74C68.6776 107.972 68.6776 107.383 69.4218 106.646C70.166 105.91 71.2822 107.088 71.6543 105.026C72.0264 102.964 71.6543 104.437 71.6543 102.964C71.6543 101.491 72.1504 101.196 71.6543 99.8704C71.5675 99.6377 71.5141 99.5095 71.4868 99.4447C71.5563 99.5581 71.725 99.7099 71.6543 98.5447C71.5303 96.4825 71.6543 96.1879 72.3984 95.746C73.1426 95.3041 72.3984 98.3974 73.1426 95.746C73.8868 93.0946 75.8712 93.0946 74.879 92.2108C73.8868 91.3269 73.5147 91.6215 73.5147 90.4431C73.5147 89.2647 73.2666 87.2025 73.5147 86.9079C73.7627 86.6133 74.5069 87.0552 74.879 85.8768C75.2511 84.6984 74.0108 86.0241 75.127 83.8146C76.2433 81.6051 76.3673 81.0159 76.3673 80.4267C77.7316 78.8063 76.7394 79.2482 77.7316 78.8063C78.7238 78.3644 78.7238 78.8063 78.7238 78.8063C78.7238 78.8063 79.716 78.9536 80.4602 77.4806C81.2043 76.0076 80.9563 76.0076 81.3284 74.8292C81.7004 73.6508 83.1888 70.2629 83.4368 69.2318C83.6849 68.2007 84.429 67.4641 84.8011 66.433C85.1732 65.4019 85.4213 64.6654 84.8011 64.2235C84.181 63.7816 84.181 64.2235 84.181 64.2235L83.4368 62.1613C82.6927 59.9518 82.6927 61.1302 82.6927 59.9518C82.6927 58.7734 84.6771 58.3315 85.1732 58.3315C85.6693 58.3315 87.0336 59.6572 86.6615 58.3315C86.2894 57.0058 86.7855 57.0058 86.7855 57.0058C86.7855 57.0058 85.2972 55.6801 85.9174 55.6801H87.6537C87.6537 55.6801 86.1654 54.0597 87.6537 53.1759C89.1421 52.2921 90.0102 51.5556 90.5064 51.1137C90.5064 51.1137 90.1343 47.5785 93.359 47.5785C96.5837 47.5785 96.4596 47.1366 97.4519 47.5785C98.4441 48.0204 98.4441 46.6947 99.5603 47.4312C100.677 48.1677 101.173 47.2839 102.289 49.3461C103.405 51.4083 103.901 52.734 104.521 53.1759C105.142 53.6178 104.893 54.0597 105.638 54.9435C106.335 55.7714 106.924 57.2473 106.994 57.43C106.971 57.3549 106.966 57.0779 108.49 57.595C110.227 58.1842 110.723 58.1842 111.343 58.1842C111.963 58.1842 113.203 57.8896 113.699 58.7734C113.975 59.2639 114.749 60.1197 115.381 60.7826C115.008 61.385 114.829 62.1363 114.744 62.886C114.479 65.2149 114.315 67.5599 114.124 69.899Z" fill="#17958C"/>
</g>
<defs>
<clipPath id="clip0_369_121">
<rect width="154.624" height="153.554" fill="white"/>
</clipPath>
</defs>
</svg>
